<svg xmlns="http://www.w3.org/2000/svg" xmlns:xlink="http://www.w3.org/1999/xlink" id="processonSvg1000" viewBox="123.1678114016585 55.5 655.7957889172657 292.5" width="655.7957889172657" height="292.5"><defs id="ProcessOnDefs1001"/><g id="ProcessOnG1002"><path id="ProcessOnPath1003" d="M123.1678114016585 55.5H778.9636003189241V348.0H123.16781140165847V55.5Z" fill="none"/><g id="ProcessOnG1004"><g id="ProcessOnG1005" transform="matrix(0.7660444431189778,-0.6427876096865396,0.6427876096865396,0.7660444431189778,292.427921067163,91.52091799881075)" opacity="1.0"><path id="ProcessOnPath1006" d="M0.0 12.0C0.0 -4.0 24.0 -4.0 24.0 12.0C24.0 28.0 0.0 28.0 0.0 12.0Z" stroke="#323232" stroke-width="2.0" stroke-dasharray="none" opacity="1.0" fill="#00cc00"/></g><g id="ProcessOnG1007" transform="matrix(0.9396926207859084,-0.3420201433256686,0.3420201433256686,0.9396926207859084,341.0,149.8279302704771)" opacity="1.0"><path id="ProcessOnPath1008" d="M0.0 12.0C0.0 -4.0 24.0 -4.0 24.0 12.0C24.0 28.0 0.0 28.0 0.0 12.0Z" stroke="#323232" stroke-width="2.0" stroke-dasharray="none" opacity="1.0" fill="#ffffff"/></g><g id="ProcessOnG1009" transform="matrix(0.8191520442889918,0.573576436351046,-0.573576436351046,0.8191520442889918,249.34035093706422,140.28725823231954)" opacity="1.0"><path id="ProcessOnPath1010" d="M0.0 12.0C0.0 -4.0 24.0 -4.0 24.0 12.0C24.0 28.0 0.0 28.0 0.0 12.0Z" stroke="#323232" stroke-width="2.0" stroke-dasharray="none" opacity="1.0" fill="#00cc00"/></g><g id="ProcessOnG1011"><path id="ProcessOnPath1012" d="M300.14137238340146 100.71345131623846L259.17017546853214 147.1701754685321" stroke="#323232" stroke-width="2.0" stroke-dasharray="none" fill="none"/></g><g id="ProcessOnG1013"><path id="ProcessOnPath1014" d="M317.0473570170677 102.19253331742773L352.27631144943086 145.7236885505691" stroke="#323232" stroke-width="2.0" stroke-dasharray="none" fill="none"/></g><g id="ProcessOnG1015" transform="matrix(0.9396926207859084,-0.3420201433256686,0.3420201433256686,0.9396926207859084,301.0,239.8279302704771)" opacity="1.0"><path id="ProcessOnPath1016" d="M0.0 12.0C0.0 -4.0 24.0 -4.0 24.0 12.0C24.0 28.0 0.0 28.0 0.0 12.0Z" stroke="#323232" stroke-width="2.0" stroke-dasharray="none" opacity="1.0" fill="#ffffff"/></g><g id="ProcessOnG1017" transform="matrix(0.7071067811865476,0.7071067811865475,-0.7071067811865475,0.7071067811865476,182.28725823231957,230.02943725152286)" opacity="1.0"><path id="ProcessOnPath1018" d="M0.0 12.0C0.0 -4.0 24.0 -4.0 24.0 12.0C24.0 28.0 0.0 28.0 0.0 12.0Z" stroke="#323232" stroke-width="2.0" stroke-dasharray="none" opacity="1.0" fill="#ffffff"/></g><g id="ProcessOnG1019"><path id="ProcessOnPath1020" d="M245.404340996107 166.8298245314679L190.77253960655815 238.51471862576147" stroke="#323232" stroke-width="2.0" stroke-dasharray="none" fill="none"/></g><g id="ProcessOnG1021"><path id="ProcessOnPath1022" d="M262.1170827637875 163.88291723621256L312.27631144943086 235.7236885505691" stroke="#323232" stroke-width="2.0" stroke-dasharray="none" fill="none"/></g><g id="ProcessOnG1023" transform="matrix(0.9396926207859084,-0.3420201433256686,0.3420201433256686,0.9396926207859084,205.99999999999997,308.8279302704771)" opacity="1.0"><path id="ProcessOnPath1024" d="M0.0 12.0C0.0 -4.0 24.0 -4.0 24.0 12.0C24.0 28.0 0.0 28.0 0.0 12.0Z" stroke="#323232" stroke-width="2.0" stroke-dasharray="none" opacity="1.0" fill="#ffffff"/></g><g id="ProcessOnG1025"><path id="ProcessOnPath1026" d="M190.77253960655815 255.48528137423858L217.27631144943086 304.7236885505691" stroke="#323232" stroke-width="2.0" stroke-dasharray="none" fill="none"/></g><g id="ProcessOnG1027" transform="matrix(1.0,0.0,0.0,1.0,263.8805531693389,82.75)" opacity="1.0"><path id="ProcessOnPath1028" d="M0.0 0.0L94.0 0.0L94.0 20.0L0.0 20.0Z" stroke="none" stroke-width="0.0" stroke-dasharray="none" opacity="1.0" fill="none"/><g id="ProcessOnG1029" transform="matrix(1.0,0.0,0.0,1.0,0.0,1.875)"><text id="ProcessOnText1030" fill="#000000" font-size="13" x="46.0" y="13.325" font-family="微软雅黑" font-weight="normal" font-style="normal" text-decoration="none" family="微软雅黑" text-anchor="middle" size="13">K1</text></g></g><g id="ProcessOnG1031" transform="matrix(1.0,0.0,0.0,1.0,220.3339057008292,146.75)" opacity="1.0"><path id="ProcessOnPath1032" d="M0.0 0.0L64.16609429917077 0.0L64.16609429917077 20.0L0.0 20.0Z" stroke="none" stroke-width="0.0" stroke-dasharray="none" opacity="1.0" fill="none"/><g id="ProcessOnG1033" transform="matrix(1.0,0.0,0.0,1.0,0.0,1.875)"><text id="ProcessOnText1034" fill="#000000" font-size="13" x="31.083047149585383" y="13.325" font-family="微软雅黑" font-weight="normal" font-style="normal" text-decoration="none" family="微软雅黑" text-anchor="middle" size="13">K2</text></g></g><g id="ProcessOnG1035" transform="matrix(0.6427876096865394,0.766044443118978,-0.766044443118978,0.6427876096865394,630.7663402335088,71.09401536633379)" opacity="1.0"><path id="ProcessOnPath1036" d="M0.0 12.0C0.0 -4.0 24.0 -4.0 24.0 12.0C24.0 28.0 0.0 28.0 0.0 12.0Z" stroke="#323232" stroke-width="2.0" stroke-dasharray="none" opacity="1.0" fill="#00cc00"/></g><g id="ProcessOnG1037" transform="matrix(1.0,0.0,0.0,1.0,143.1678114016585,235.0)" opacity="1.0"><path id="ProcessOnPath1038" d="M0.0 0.0L77.16609429917077 0.0L77.16609429917077 25.0L0.0 25.0Z" stroke="none" stroke-width="0.0" stroke-dasharray="none" opacity="1.0" fill="none"/><g id="ProcessOnG1039" transform="matrix(1.0,0.0,0.0,1.0,0.0,4.375)"><text id="ProcessOnText1040" fill="#000000" font-size="13" x="37.58304714958538" y="13.325" font-family="微软雅黑" font-weight="normal" font-style="normal" text-decoration="none" family="微软雅黑" text-anchor="middle" size="13">3</text></g></g><g id="ProcessOnG1041" transform="matrix(0.7071067811865476,0.7071067811865475,-0.7071067811865475,0.7071067811865476,680.7872582323196,149.77943725152286)" opacity="1.0"><path id="ProcessOnPath1042" d="M0.0 12.0C0.0 -4.0 24.0 -4.0 24.0 12.0C24.0 28.0 0.0 28.0 0.0 12.0Z" stroke="#323232" stroke-width="2.0" stroke-dasharray="none" opacity="1.0" fill="#00cc00"/></g><g id="ProcessOnG1043" transform="matrix(1.0,0.0,0.0,1.0,590.7042110827342,75.5)" opacity="1.0"><path id="ProcessOnPath1044" d="M0.0 0.0L77.16609429917077 0.0L77.16609429917077 25.0L0.0 25.0Z" stroke="none" stroke-width="0.0" stroke-dasharray="none" opacity="1.0" fill="none"/><g id="ProcessOnG1045" transform="matrix(1.0,0.0,0.0,1.0,0.0,4.375)"><text id="ProcessOnText1046" fill="#000000" font-size="13" x="37.58304714958538" y="13.325" font-family="微软雅黑" font-weight="normal" font-style="normal" text-decoration="none" family="微软雅黑" text-anchor="middle" size="13">K2</text></g></g><g id="ProcessOnG1047" transform="matrix(0.9396926207859084,-0.3420201433256686,0.3420201433256686,0.9396926207859084,705.0,235.8279302704771)" opacity="1.0"><path id="ProcessOnPath1048" d="M0.0 12.0C0.0 -4.0 24.0 -4.0 24.0 12.0C24.0 28.0 0.0 28.0 0.0 12.0Z" stroke="#323232" stroke-width="2.0" stroke-dasharray="none" opacity="1.0" fill="#ffffff"/></g><g id="ProcessOnG1049"><path id="ProcessOnPath1050" d="M637.000709548558 97.19253331742775L672.301976858081 158.26471862576142" stroke="#323232" stroke-width="2.0" stroke-dasharray="none" fill="none"/></g><g id="ProcessOnG1051"><path id="ProcessOnPath1052" d="M689.2725396065581 175.23528137423858L716.2763114494309 231.7236885505691" stroke="#323232" stroke-width="2.0" stroke-dasharray="none" fill="none"/></g><g id="ProcessOnG1053" transform="matrix(0.8660254037844385,0.5000000000000002,-0.5000000000000002,0.8660254037844385,641.9882483239256,226.60769515458674)" opacity="1.0"><path id="ProcessOnPath1054" d="M0.0 12.0C0.0 -4.0 24.0 -4.0 24.0 12.0C24.0 28.0 0.0 28.0 0.0 12.0Z" stroke="#323232" stroke-width="2.0" stroke-dasharray="none" opacity="1.0" fill="#ffffff"/></g><g id="ProcessOnG1055"><path id="ProcessOnPath1056" d="M672.3019768580809 175.23528137423858L652.3805531693389 232.60769515458674" stroke="#323232" stroke-width="2.0" stroke-dasharray="none" fill="none"/></g><g id="ProcessOnG1057" transform="matrix(0.9396926207859084,-0.3420201433256686,0.3420201433256686,0.9396926207859084,566.0,238.8279302704771)" opacity="1.0"><path id="ProcessOnPath1058" d="M0.0 12.0C0.0 -4.0 24.0 -4.0 24.0 12.0C24.0 28.0 0.0 28.0 0.0 12.0Z" stroke="#323232" stroke-width="2.0" stroke-dasharray="none" opacity="1.0" fill="#ffffff"/></g><g id="ProcessOnG1059" transform="matrix(0.9396926207859084,-0.3420201433256686,0.3420201433256686,0.9396926207859084,539.0,153.8279302704771)" opacity="1.0"><path id="ProcessOnPath1060" d="M0.0 12.0C0.0 -4.0 24.0 -4.0 24.0 12.0C24.0 28.0 0.0 28.0 0.0 12.0Z" stroke="#323232" stroke-width="2.0" stroke-dasharray="none" opacity="1.0" fill="#ffffff"/></g><g id="ProcessOnG1061"><path id="ProcessOnPath1062" d="M558.4847948892469 172.2763114494309L577.2763114494309 234.7236885505691" stroke="#323232" stroke-width="2.0" stroke-dasharray="none" fill="none"/></g><g id="ProcessOnG1063"><path id="ProcessOnPath1064" d="M620.0947249148918 95.71345131623848L565.6568646187698 156.89575828009197" stroke="#323232" stroke-width="2.0" stroke-dasharray="none" fill="none"/></g><g id="ProcessOnG1065" transform="matrix(1.0,0.0,0.0,1.0,182.79750601975354,303.0)" opacity="1.0"><path id="ProcessOnPath1066" d="M0.0 0.0L77.16609429917077 0.0L77.16609429917077 25.0L0.0 25.0Z" stroke="none" stroke-width="0.0" stroke-dasharray="none" opacity="1.0" fill="none"/><g id="ProcessOnG1067" transform="matrix(1.0,0.0,0.0,1.0,0.0,4.375)"><text id="ProcessOnText1068" fill="#000000" font-size="13" x="37.58304714958538" y="13.325" font-family="微软雅黑" font-weight="normal" font-style="normal" text-decoration="none" family="微软雅黑" text-anchor="middle" size="13">4</text></g></g><g id="ProcessOnG1069" transform="matrix(1.0,0.0,0.0,1.0,642.2042110827342,154.25)" opacity="1.0"><path id="ProcessOnPath1070" d="M0.0 0.0L77.16609429917077 0.0L77.16609429917077 25.0L0.0 25.0Z" stroke="none" stroke-width="0.0" stroke-dasharray="none" opacity="1.0" fill="none"/><g id="ProcessOnG1071" transform="matrix(1.0,0.0,0.0,1.0,0.0,4.375)"><text id="ProcessOnText1072" fill="#000000" font-size="13" x="37.58304714958538" y="13.325" font-family="微软雅黑" font-weight="normal" font-style="normal" text-decoration="none" family="微软雅黑" text-anchor="middle" size="13">K1</text></g></g><g id="ProcessOnG1073" transform="matrix(1.0,0.0,0.0,1.0,277.79750601975354,238.0)" opacity="1.0"><path id="ProcessOnPath1074" d="M0.0 0.0L77.16609429917077 0.0L77.16609429917077 25.0L0.0 25.0Z" stroke="none" stroke-width="0.0" stroke-dasharray="none" opacity="1.0" fill="none"/><g id="ProcessOnG1075" transform="matrix(1.0,0.0,0.0,1.0,0.0,4.375)"><text id="ProcessOnText1076" fill="#000000" font-size="13" x="37.58304714958538" y="13.325" font-family="微软雅黑" font-weight="normal" font-style="normal" text-decoration="none" family="微软雅黑" text-anchor="middle" size="13">5</text></g></g><g id="ProcessOnG1077" transform="matrix(1.0,0.0,0.0,1.0,317.79750601975354,144.25)" opacity="1.0"><path id="ProcessOnPath1078" d="M0.0 0.0L77.16609429917077 0.0L77.16609429917077 25.0L0.0 25.0Z" stroke="none" stroke-width="0.0" stroke-dasharray="none" opacity="1.0" fill="none"/><g id="ProcessOnG1079" transform="matrix(1.0,0.0,0.0,1.0,0.0,4.375)"><text id="ProcessOnText1080" fill="#000000" font-size="13" x="37.58304714958538" y="13.325" font-family="微软雅黑" font-weight="normal" font-style="normal" text-decoration="none" family="微软雅黑" text-anchor="middle" size="13">6</text></g></g><g id="ProcessOnG1081" transform="matrix(1.0,0.0,0.0,1.0,515.7975060197535,148.5)" opacity="1.0"><path id="ProcessOnPath1082" d="M0.0 0.0L77.16609429917077 0.0L77.16609429917077 25.0L0.0 25.0Z" stroke="none" stroke-width="0.0" stroke-dasharray="none" opacity="1.0" fill="none"/><g id="ProcessOnG1083" transform="matrix(1.0,0.0,0.0,1.0,0.0,4.375)"><text id="ProcessOnText1084" fill="#000000" font-size="13" x="37.58304714958538" y="13.325" font-family="微软雅黑" font-weight="normal" font-style="normal" text-decoration="none" family="微软雅黑" text-anchor="middle" size="13">3</text></g></g><g id="ProcessOnG1085" transform="matrix(1.0,0.0,0.0,1.0,542.3805531693389,233.5)" opacity="1.0"><path id="ProcessOnPath1086" d="M0.0 0.0L77.16609429917077 0.0L77.16609429917077 25.0L0.0 25.0Z" stroke="none" stroke-width="0.0" stroke-dasharray="none" opacity="1.0" fill="none"/><g id="ProcessOnG1087" transform="matrix(1.0,0.0,0.0,1.0,0.0,4.375)"><text id="ProcessOnText1088" fill="#000000" font-size="13" x="37.58304714958538" y="13.325" font-family="微软雅黑" font-weight="normal" font-style="normal" text-decoration="none" family="微软雅黑" text-anchor="middle" size="13">4</text></g></g><g id="ProcessOnG1089" transform="matrix(1.0,0.0,0.0,1.0,604.6314117205826,230.0)" opacity="1.0"><path id="ProcessOnPath1090" d="M0.0 0.0L77.16609429917077 0.0L77.16609429917077 25.0L0.0 25.0Z" stroke="none" stroke-width="0.0" stroke-dasharray="none" opacity="1.0" fill="none"/><g id="ProcessOnG1091" transform="matrix(1.0,0.0,0.0,1.0,0.0,4.375)"><text id="ProcessOnText1092" fill="#000000" font-size="13" x="37.58304714958538" y="13.325" font-family="微软雅黑" font-weight="normal" font-style="normal" text-decoration="none" family="微软雅黑" text-anchor="middle" size="13">5</text></g></g><g id="ProcessOnG1093" transform="matrix(1.0,0.0,0.0,1.0,681.7975060197534,230.0)" opacity="1.0"><path id="ProcessOnPath1094" d="M0.0 0.0L77.16609429917077 0.0L77.16609429917077 25.0L0.0 25.0Z" stroke="none" stroke-width="0.0" stroke-dasharray="none" opacity="1.0" fill="none"/><g id="ProcessOnG1095" transform="matrix(1.0,0.0,0.0,1.0,0.0,4.375)"><text id="ProcessOnText1096" fill="#000000" font-size="13" x="37.58304714958538" y="13.325" font-family="微软雅黑" font-weight="normal" font-style="normal" text-decoration="none" family="微软雅黑" text-anchor="middle" size="13">6</text></g></g><g id="ProcessOnG1097" transform="matrix(1.0,0.0,0.0,1.0,404.9636003189243,183.5)" opacity="1.0"><path id="ProcessOnPath1098" d="M0.0 6.6000000000000005L88.0363996810757 6.6000000000000005L88.0363996810757 0.0L98.0363996810757 10.0L88.0363996810757 20.0L88.0363996810757 13.4L0.0 13.4L0.0 6.6000000000000005Z" stroke="#323232" stroke-width="2.0" stroke-dasharray="none" opacity="1.0" fill="#ccffcc"/></g><g id="ProcessOnG1099" transform="matrix(1.0,0.0,0.0,1.0,404.9636003189243,154.25)" opacity="1.0"><path id="ProcessOnPath1100" d="M0.0 0.0L92.01819984053782 0.0L92.01819984053782 35.75L0.0 35.75Z" stroke="none" stroke-width="0.0" stroke-dasharray="none" opacity="1.0" fill="none"/><g id="ProcessOnG1101" transform="matrix(1.0,0.0,0.0,1.0,0.0,1.625)"><text id="ProcessOnText1102" fill="#ff0000" font-size="13" x="45.00909992026891" y="13.325" font-family="微软雅黑" font-weight="bold" font-style="normal" text-decoration="none" family="微软雅黑" text-anchor="middle" size="13">LL型，以K1为</text><text id="ProcessOnText1103" fill="#ff0000" font-size="13" x="45.00909992026891" y="29.575" font-family="微软雅黑" font-weight="bold" font-style="normal" text-decoration="none" family="微软雅黑" text-anchor="middle" size="13">基础进行右旋</text></g></g></g></g></svg>