<svg xmlns="http://www.w3.org/2000/svg" xmlns:xlink="http://www.w3.org/1999/xlink" id="processonSvg1000" viewBox="79.70421108273419 55.5 629.2593892361899 277.5" width="629.2593892361899" height="277.5"><defs id="ProcessOnDefs1001"/><g id="ProcessOnG1002"><path id="ProcessOnPath1003" d="M79.70421108273419 55.5H708.9636003189241V333.0H79.70421108273422V55.5Z" fill="none"/><g id="ProcessOnG1004"><g id="ProcessOnG1005" transform="matrix(0.7660444431189778,-0.6427876096865396,0.6427876096865396,0.7660444431189778,182.42792106716303,91.52091799881075)" opacity="1.0"><path id="ProcessOnPath1006" d="M0.0 12.0C0.0 -4.0 24.0 -4.0 24.0 12.0C24.0 28.0 0.0 28.0 0.0 12.0Z" stroke="#323232" stroke-width="2.0" stroke-dasharray="none" opacity="1.0" fill="#00cc00"/></g><g id="ProcessOnG1007" transform="matrix(0.7071067811865474,-0.7071067811865477,0.7071067811865477,0.7071067811865474,171.40999042086176,229.0)" opacity="1.0"><path id="ProcessOnPath1008" d="M0.0 12.0C0.0 -4.0 24.0 -4.0 24.0 12.0C24.0 28.0 0.0 28.0 0.0 12.0Z" stroke="#323232" stroke-width="2.0" stroke-dasharray="none" opacity="1.0" fill="#ffffff"/></g><g id="ProcessOnG1009" transform="matrix(0.6427876096865394,0.766044443118978,-0.766044443118978,0.6427876096865394,247.85963517052815,139.8440153663338)" opacity="1.0"><path id="ProcessOnPath1010" d="M0.0 12.0C0.0 -4.0 24.0 -4.0 24.0 12.0C24.0 28.0 0.0 28.0 0.0 12.0Z" stroke="#323232" stroke-width="2.0" stroke-dasharray="none" opacity="1.0" fill="#00cc00"/></g><g id="ProcessOnG1011" transform="matrix(0.8660254037844384,-0.5000000000000004,0.5000000000000004,0.8660254037844384,280.98824832392563,224.60769515458674)" opacity="1.0"><path id="ProcessOnPath1012" d="M0.0 12.0C0.0 -4.0 24.0 -4.0 24.0 12.0C24.0 28.0 0.0 28.0 0.0 12.0Z" stroke="#323232" stroke-width="2.0" stroke-dasharray="none" opacity="1.0" fill="#ffffff"/></g><g id="ProcessOnG1013" transform="matrix(0.7071067811865476,0.7071067811865475,-0.7071067811865475,0.7071067811865476,138.28725823231957,144.02943725152286)" opacity="1.0"><path id="ProcessOnPath1014" d="M0.0 12.0C0.0 -4.0 24.0 -4.0 24.0 12.0C24.0 28.0 0.0 28.0 0.0 12.0Z" stroke="#323232" stroke-width="2.0" stroke-dasharray="none" opacity="1.0" fill="#ffffff"/></g><g id="ProcessOnG1015" transform="matrix(0.5000000000000009,-0.8660254037844382,0.8660254037844382,0.5000000000000009,219.48824832392563,301.39230484541326)" opacity="1.0"><path id="ProcessOnPath1016" d="M0.0 12.0C0.0 -4.0 24.0 -4.0 24.0 12.0C24.0 28.0 0.0 28.0 0.0 12.0Z" stroke="#323232" stroke-width="2.0" stroke-dasharray="none" opacity="1.0" fill="#ffffff"/></g><g id="ProcessOnG1017" transform="matrix(1.0,0.0,0.0,1.0,153.8805531693389,83.0)" opacity="1.0"><path id="ProcessOnPath1018" d="M0.0 0.0L94.0 0.0L94.0 20.0L0.0 20.0Z" stroke="none" stroke-width="0.0" stroke-dasharray="none" opacity="1.0" fill="none"/><g id="ProcessOnG1019" transform="matrix(1.0,0.0,0.0,1.0,0.0,1.875)"><text id="ProcessOnText1020" fill="#000000" font-size="13" x="46.0" y="13.325" font-family="微软雅黑" font-weight="normal" font-style="normal" text-decoration="none" family="微软雅黑" text-anchor="middle" size="13">K1</text></g></g><g id="ProcessOnG1021" transform="matrix(1.0,0.0,0.0,1.0,214.2975060197535,146.75)" opacity="1.0"><path id="ProcessOnPath1022" d="M0.0 0.0L64.16609429917077 0.0L64.16609429917077 20.0L0.0 20.0Z" stroke="none" stroke-width="0.0" stroke-dasharray="none" opacity="1.0" fill="none"/><g id="ProcessOnG1023" transform="matrix(1.0,0.0,0.0,1.0,0.0,1.875)"><text id="ProcessOnText1024" fill="#000000" font-size="13" x="31.083047149585383" y="13.325" font-family="微软雅黑" font-weight="normal" font-style="normal" text-decoration="none" family="微软雅黑" text-anchor="middle" size="13">K2</text></g></g><g id="ProcessOnG1025" transform="matrix(0.6427876096865394,0.766044443118978,-0.766044443118978,0.6427876096865394,577.8596351705281,71.09401536633379)" opacity="1.0"><path id="ProcessOnPath1026" d="M0.0 12.0C0.0 -4.0 24.0 -4.0 24.0 12.0C24.0 28.0 0.0 28.0 0.0 12.0Z" stroke="#323232" stroke-width="2.0" stroke-dasharray="none" opacity="1.0" fill="#00cc00"/></g><g id="ProcessOnG1027" transform="matrix(1.0,0.0,0.0,1.0,99.70421108273419,148.5)" opacity="1.0"><path id="ProcessOnPath1028" d="M0.0 0.0L77.16609429917077 0.0L77.16609429917077 25.0L0.0 25.0Z" stroke="none" stroke-width="0.0" stroke-dasharray="none" opacity="1.0" fill="none"/><g id="ProcessOnG1029" transform="matrix(1.0,0.0,0.0,1.0,0.0,4.375)"><text id="ProcessOnText1030" fill="#000000" font-size="13" x="37.58304714958538" y="13.325" font-family="微软雅黑" font-weight="normal" font-style="normal" text-decoration="none" family="微软雅黑" text-anchor="middle" size="13">3</text></g></g><g id="ProcessOnG1031" transform="matrix(0.7071067811865476,0.7071067811865475,-0.7071067811865475,0.7071067811865476,514.3805531693389,133.77943725152286)" opacity="1.0"><path id="ProcessOnPath1032" d="M0.0 12.0C0.0 -4.0 24.0 -4.0 24.0 12.0C24.0 28.0 0.0 28.0 0.0 12.0Z" stroke="#323232" stroke-width="2.0" stroke-dasharray="none" opacity="1.0" fill="#00cc00"/></g><g id="ProcessOnG1033" transform="matrix(1.0,0.0,0.0,1.0,537.7975060197534,75.5)" opacity="1.0"><path id="ProcessOnPath1034" d="M0.0 0.0L77.16609429917077 0.0L77.16609429917077 25.0L0.0 25.0Z" stroke="none" stroke-width="0.0" stroke-dasharray="none" opacity="1.0" fill="none"/><g id="ProcessOnG1035" transform="matrix(1.0,0.0,0.0,1.0,0.0,4.375)"><text id="ProcessOnText1036" fill="#000000" font-size="13" x="37.58304714958538" y="13.325" font-family="微软雅黑" font-weight="normal" font-style="normal" text-decoration="none" family="微软雅黑" text-anchor="middle" size="13">K2</text></g></g><g id="ProcessOnG1037" transform="matrix(0.7660444431189778,-0.6427876096865396,0.6427876096865396,0.7660444431189778,635.4745685356727,149.27091799881075)" opacity="1.0"><path id="ProcessOnPath1038" d="M0.0 12.0C0.0 -4.0 24.0 -4.0 24.0 12.0C24.0 28.0 0.0 28.0 0.0 12.0Z" stroke="#323232" stroke-width="2.0" stroke-dasharray="none" opacity="1.0" fill="#ffffff"/></g><g id="ProcessOnG1039" transform="matrix(0.8660254037844385,0.5000000000000002,-0.5000000000000002,0.8660254037844385,600.9882483239256,199.10769515458674)" opacity="1.0"><path id="ProcessOnPath1040" d="M0.0 12.0C0.0 -4.0 24.0 -4.0 24.0 12.0C24.0 28.0 0.0 28.0 0.0 12.0Z" stroke="#323232" stroke-width="2.0" stroke-dasharray="none" opacity="1.0" fill="#ffffff"/></g><g id="ProcessOnG1041" transform="matrix(0.9396926207859084,-0.3420201433256686,0.3420201433256686,0.9396926207859084,537.0,208.3279302704771)" opacity="1.0"><path id="ProcessOnPath1042" d="M0.0 12.0C0.0 -4.0 24.0 -4.0 24.0 12.0C24.0 28.0 0.0 28.0 0.0 12.0Z" stroke="#323232" stroke-width="2.0" stroke-dasharray="none" opacity="1.0" fill="#ffffff"/></g><g id="ProcessOnG1043" transform="matrix(0.5000000000000009,-0.8660254037844382,0.8660254037844382,0.5000000000000009,446.40520117434016,216.89230484541324)" opacity="1.0"><path id="ProcessOnPath1044" d="M0.0 12.0C0.0 -4.0 24.0 -4.0 24.0 12.0C24.0 28.0 0.0 28.0 0.0 12.0Z" stroke="#323232" stroke-width="2.0" stroke-dasharray="none" opacity="1.0" fill="#ffffff"/></g><g id="ProcessOnG1045" transform="matrix(1.0,0.0,0.0,1.0,150.28725823231957,217.0)" opacity="1.0"><path id="ProcessOnPath1046" d="M0.0 0.0L77.16609429917077 0.0L77.16609429917077 25.0L0.0 25.0Z" stroke="none" stroke-width="0.0" stroke-dasharray="none" opacity="1.0" fill="none"/><g id="ProcessOnG1047" transform="matrix(1.0,0.0,0.0,1.0,0.0,4.375)"><text id="ProcessOnText1048" fill="#000000" font-size="13" x="37.58304714958538" y="13.325" font-family="微软雅黑" font-weight="normal" font-style="normal" text-decoration="none" family="微软雅黑" text-anchor="middle" size="13">4</text></g></g><g id="ProcessOnG1049" transform="matrix(1.0,0.0,0.0,1.0,475.79750601975354,138.25)" opacity="1.0"><path id="ProcessOnPath1050" d="M0.0 0.0L77.16609429917077 0.0L77.16609429917077 25.0L0.0 25.0Z" stroke="none" stroke-width="0.0" stroke-dasharray="none" opacity="1.0" fill="none"/><g id="ProcessOnG1051" transform="matrix(1.0,0.0,0.0,1.0,0.0,4.375)"><text id="ProcessOnText1052" fill="#000000" font-size="13" x="37.58304714958538" y="13.325" font-family="微软雅黑" font-weight="normal" font-style="normal" text-decoration="none" family="微软雅黑" text-anchor="middle" size="13">K1</text></g></g><g id="ProcessOnG1053" transform="matrix(1.0,0.0,0.0,1.0,197.2975060197535,288.0)" opacity="1.0"><path id="ProcessOnPath1054" d="M0.0 0.0L77.16609429917077 0.0L77.16609429917077 25.0L0.0 25.0Z" stroke="none" stroke-width="0.0" stroke-dasharray="none" opacity="1.0" fill="none"/><g id="ProcessOnG1055" transform="matrix(1.0,0.0,0.0,1.0,0.0,4.375)"><text id="ProcessOnText1056" fill="#000000" font-size="13" x="37.58304714958538" y="13.325" font-family="微软雅黑" font-weight="normal" font-style="normal" text-decoration="none" family="微软雅黑" text-anchor="middle" size="13">5</text></g></g><g id="ProcessOnG1057" transform="matrix(1.0,0.0,0.0,1.0,258.3805531693389,216.5)" opacity="1.0"><path id="ProcessOnPath1058" d="M0.0 0.0L77.16609429917077 0.0L77.16609429917077 25.0L0.0 25.0Z" stroke="none" stroke-width="0.0" stroke-dasharray="none" opacity="1.0" fill="none"/><g id="ProcessOnG1059" transform="matrix(1.0,0.0,0.0,1.0,0.0,4.375)"><text id="ProcessOnText1060" fill="#000000" font-size="13" x="37.58304714958538" y="13.325" font-family="微软雅黑" font-weight="normal" font-style="normal" text-decoration="none" family="微软雅黑" text-anchor="middle" size="13">6</text></g></g><g id="ProcessOnG1061" transform="matrix(1.0,0.0,0.0,1.0,424.214458870168,200.0)" opacity="1.0"><path id="ProcessOnPath1062" d="M0.0 0.0L77.16609429917077 0.0L77.16609429917077 25.0L0.0 25.0Z" stroke="none" stroke-width="0.0" stroke-dasharray="none" opacity="1.0" fill="none"/><g id="ProcessOnG1063" transform="matrix(1.0,0.0,0.0,1.0,0.0,4.375)"><text id="ProcessOnText1064" fill="#000000" font-size="13" x="37.58304714958538" y="13.325" font-family="微软雅黑" font-weight="normal" font-style="normal" text-decoration="none" family="微软雅黑" text-anchor="middle" size="13">3</text></g></g><g id="ProcessOnG1065" transform="matrix(1.0,0.0,0.0,1.0,513.7975060197535,203.5)" opacity="1.0"><path id="ProcessOnPath1066" d="M0.0 0.0L77.16609429917077 0.0L77.16609429917077 25.0L0.0 25.0Z" stroke="none" stroke-width="0.0" stroke-dasharray="none" opacity="1.0" fill="none"/><g id="ProcessOnG1067" transform="matrix(1.0,0.0,0.0,1.0,0.0,4.375)"><text id="ProcessOnText1068" fill="#000000" font-size="13" x="37.58304714958538" y="13.325" font-family="微软雅黑" font-weight="normal" font-style="normal" text-decoration="none" family="微软雅黑" text-anchor="middle" size="13">4</text></g></g><g id="ProcessOnG1069" transform="matrix(1.0,0.0,0.0,1.0,566.7975060197535,203.5)" opacity="1.0"><path id="ProcessOnPath1070" d="M0.0 0.0L77.16609429917077 0.0L77.16609429917077 25.0L0.0 25.0Z" stroke="none" stroke-width="0.0" stroke-dasharray="none" opacity="1.0" fill="none"/><g id="ProcessOnG1071" transform="matrix(1.0,0.0,0.0,1.0,0.0,4.375)"><text id="ProcessOnText1072" fill="#000000" font-size="13" x="37.58304714958538" y="13.325" font-family="微软雅黑" font-weight="normal" font-style="normal" text-decoration="none" family="微软雅黑" text-anchor="middle" size="13">5</text></g></g><g id="ProcessOnG1073" transform="matrix(1.0,0.0,0.0,1.0,611.7975060197534,138.25)" opacity="1.0"><path id="ProcessOnPath1074" d="M0.0 0.0L77.16609429917077 0.0L77.16609429917077 25.0L0.0 25.0Z" stroke="none" stroke-width="0.0" stroke-dasharray="none" opacity="1.0" fill="none"/><g id="ProcessOnG1075" transform="matrix(1.0,0.0,0.0,1.0,0.0,4.375)"><text id="ProcessOnText1076" fill="#000000" font-size="13" x="37.58304714958538" y="13.325" font-family="微软雅黑" font-weight="normal" font-style="normal" text-decoration="none" family="微软雅黑" text-anchor="middle" size="13">6</text></g></g><g id="ProcessOnG1077" transform="matrix(1.0,0.0,0.0,1.0,334.9636003189243,183.5)" opacity="1.0"><path id="ProcessOnPath1078" d="M0.0 6.6000000000000005L88.0363996810757 6.6000000000000005L88.0363996810757 0.0L98.0363996810757 10.0L88.0363996810757 20.0L88.0363996810757 13.4L0.0 13.4L0.0 6.6000000000000005Z" stroke="#323232" stroke-width="2.0" stroke-dasharray="none" opacity="1.0" fill="#ccffcc"/></g><g id="ProcessOnG1079" transform="matrix(1.0,0.0,0.0,1.0,334.9636003189243,154.25)" opacity="1.0"><path id="ProcessOnPath1080" d="M0.0 0.0L92.01819984053782 0.0L92.01819984053782 35.75L0.0 35.75Z" stroke="none" stroke-width="0.0" stroke-dasharray="none" opacity="1.0" fill="none"/><g id="ProcessOnG1081" transform="matrix(1.0,0.0,0.0,1.0,0.0,1.625)"><text id="ProcessOnText1082" fill="#ff0000" font-size="13" x="45.00909992026891" y="13.325" font-family="微软雅黑" font-weight="bold" font-style="normal" text-decoration="none" family="微软雅黑" text-anchor="middle" size="13">RR型，以K1为</text><text id="ProcessOnText1083" fill="#ff0000" font-size="13" x="45.00909992026891" y="29.575" font-family="微软雅黑" font-weight="bold" font-style="normal" text-decoration="none" family="微软雅黑" text-anchor="middle" size="13">基础进行左旋</text></g></g><g id="ProcessOnG1084"><path id="ProcessOnPath1085" d="M196.86583454357745 220.51471862576142L237.18801985191115 164.46345131623846" stroke="#323232" stroke-width="2.0" stroke-dasharray="none" fill="none"/></g><g id="ProcessOnG1086"><path id="ProcessOnPath1087" d="M254.0940044855774 165.94253331742775L291.3805531693389 218.60769515458674" stroke="#323232" stroke-width="2.0" stroke-dasharray="none" fill="none"/></g><g id="ProcessOnG1088"><path id="ProcessOnPath1089" d="M190.14137238340152 100.71345131623849L146.77253960655815 152.51471862576142" stroke="#323232" stroke-width="2.0" stroke-dasharray="none" fill="none"/></g><g id="ProcessOnG1090"><path id="ProcessOnPath1091" d="M207.0473570170677 102.19253331742775L238.66710185310043 147.55746668257225" stroke="#323232" stroke-width="2.0" stroke-dasharray="none" fill="none"/></g><g id="ProcessOnG1092"><path id="ProcessOnPath1093" d="M241.8805531693389 286.60769515458674L286.98824832392563 235.0" stroke="#323232" stroke-width="2.0" stroke-dasharray="none" fill="none"/></g><g id="ProcessOnG1094"><path id="ProcessOnPath1095" d="M567.1880198519111 95.71345131623848L522.8658345435774 142.26471862576142" stroke="#323232" stroke-width="2.0" stroke-dasharray="none" fill="none"/></g><g id="ProcessOnG1096"><path id="ProcessOnPath1097" d="M468.7975060197534 202.10769515458676L505.89527179510037 159.23528137423858" stroke="#323232" stroke-width="2.0" stroke-dasharray="none" fill="none"/></g><g id="ProcessOnG1098"><path id="ProcessOnPath1099" d="M584.0940044855773 97.19253331742773L644.6671018531005 141.55746668257228" stroke="#323232" stroke-width="2.0" stroke-dasharray="none" fill="none"/></g><g id="ProcessOnG1100"><path id="ProcessOnPath1101" d="M522.8658345435774 159.23528137423858L548.2763114494309 204.2236885505691" stroke="#323232" stroke-width="2.0" stroke-dasharray="none" fill="none"/></g><g id="ProcessOnG1102"><path id="ProcessOnPath1103" d="M611.3805531693389 205.10769515458674L643.1880198519111 158.4634513162385" stroke="#323232" stroke-width="2.0" stroke-dasharray="none" fill="none"/></g></g></g></svg>