<svg xmlns="http://www.w3.org/2000/svg" xmlns:xlink="http://www.w3.org/1999/xlink" id="processonSvg1000" viewBox="123.1678114016585 61.0 942.7957889172659 279.0" width="942.7957889172659" height="279.0"><defs id="ProcessOnDefs1001"/><g id="ProcessOnG1002"><path id="ProcessOnPath1003" d="M123.1678114016585 61.0H1065.9636003189244V340.0H123.16781140165847V61.0Z" fill="none"/><g id="ProcessOnG1004"><g id="ProcessOnG1005" transform="matrix(0.7660444431189778,-0.6427876096865396,0.6427876096865396,0.7660444431189778,292.427921067163,91.52091799881075)" opacity="1.0"><path id="ProcessOnPath1006" d="M0.0 12.0C0.0 -4.0 24.0 -4.0 24.0 12.0C24.0 28.0 0.0 28.0 0.0 12.0Z" stroke="#323232" stroke-width="2.0" stroke-dasharray="none" opacity="1.0" fill="#00cc00"/></g><g id="ProcessOnG1007" transform="matrix(0.9396926207859084,-0.3420201433256686,0.3420201433256686,0.9396926207859084,341.0,149.8279302704771)" opacity="1.0"><path id="ProcessOnPath1008" d="M0.0 12.0C0.0 -4.0 24.0 -4.0 24.0 12.0C24.0 28.0 0.0 28.0 0.0 12.0Z" stroke="#323232" stroke-width="2.0" stroke-dasharray="none" opacity="1.0" fill="#ffffff"/></g><g id="ProcessOnG1009" transform="matrix(0.8191520442889918,0.573576436351046,-0.573576436351046,0.8191520442889918,249.34035093706422,140.28725823231954)" opacity="1.0"><path id="ProcessOnPath1010" d="M0.0 12.0C0.0 -4.0 24.0 -4.0 24.0 12.0C24.0 28.0 0.0 28.0 0.0 12.0Z" stroke="#323232" stroke-width="2.0" stroke-dasharray="none" opacity="1.0" fill="#00cc00"/></g><g id="ProcessOnG1011"><path id="ProcessOnPath1012" d="M300.14137238340146 100.71345131623846L259.17017546853214 147.1701754685321" stroke="#323232" stroke-width="2.0" stroke-dasharray="none" fill="none"/></g><g id="ProcessOnG1013"><path id="ProcessOnPath1014" d="M317.0473570170677 102.19253331742773L352.27631144943086 145.7236885505691" stroke="#323232" stroke-width="2.0" stroke-dasharray="none" fill="none"/></g><g id="ProcessOnG1015" transform="matrix(0.7071067811865474,-0.7071067811865477,0.7071067811865477,0.7071067811865474,299.40999042086173,247.0)" opacity="1.0"><path id="ProcessOnPath1016" d="M0.0 12.0C0.0 -4.0 24.0 -4.0 24.0 12.0C24.0 28.0 0.0 28.0 0.0 12.0Z" stroke="#323232" stroke-width="2.0" stroke-dasharray="none" opacity="1.0" fill="#ffffff"/></g><g id="ProcessOnG1017" transform="matrix(0.7071067811865476,0.7071067811865475,-0.7071067811865475,0.7071067811865476,182.28725823231957,230.02943725152286)" opacity="1.0"><path id="ProcessOnPath1018" d="M0.0 12.0C0.0 -4.0 24.0 -4.0 24.0 12.0C24.0 28.0 0.0 28.0 0.0 12.0Z" stroke="#323232" stroke-width="2.0" stroke-dasharray="none" opacity="1.0" fill="#ffffff"/></g><g id="ProcessOnG1019"><path id="ProcessOnPath1020" d="M245.404340996107 166.8298245314679L190.77253960655815 238.51471862576147" stroke="#323232" stroke-width="2.0" stroke-dasharray="none" fill="none"/></g><g id="ProcessOnG1021"><path id="ProcessOnPath1022" d="M262.1170827637875 163.88291723621256L307.8952717951003 238.51471862576145" stroke="#323232" stroke-width="2.0" stroke-dasharray="none" fill="none"/></g><g id="ProcessOnG1023" transform="matrix(0.6427876096865393,-0.7660444431189781,0.7660444431189781,0.6427876096865393,248.89152138608733,308.4790820011893)" opacity="1.0"><path id="ProcessOnPath1024" d="M0.0 12.0C0.0 -4.0 24.0 -4.0 24.0 12.0C24.0 28.0 0.0 28.0 0.0 12.0Z" stroke="#323232" stroke-width="2.0" stroke-dasharray="none" opacity="1.0" fill="#ffffff"/></g><g id="ProcessOnG1025" transform="matrix(1.0,0.0,0.0,1.0,263.8805531693389,82.75)" opacity="1.0"><path id="ProcessOnPath1026" d="M0.0 0.0L94.0 0.0L94.0 20.0L0.0 20.0Z" stroke="none" stroke-width="0.0" stroke-dasharray="none" opacity="1.0" fill="none"/><g id="ProcessOnG1027" transform="matrix(1.0,0.0,0.0,1.0,0.0,1.875)"><text id="ProcessOnText1028" fill="#000000" font-size="13" x="46.0" y="13.325" font-family="微软雅黑" font-weight="normal" font-style="normal" text-decoration="none" family="微软雅黑" text-anchor="middle" size="13">K1</text></g></g><g id="ProcessOnG1029" transform="matrix(1.0,0.0,0.0,1.0,220.3339057008292,146.75)" opacity="1.0"><path id="ProcessOnPath1030" d="M0.0 0.0L64.16609429917077 0.0L64.16609429917077 20.0L0.0 20.0Z" stroke="none" stroke-width="0.0" stroke-dasharray="none" opacity="1.0" fill="none"/><g id="ProcessOnG1031" transform="matrix(1.0,0.0,0.0,1.0,0.0,1.875)"><text id="ProcessOnText1032" fill="#000000" font-size="13" x="31.083047149585383" y="13.325" font-family="微软雅黑" font-weight="normal" font-style="normal" text-decoration="none" family="微软雅黑" text-anchor="middle" size="13">K2</text></g></g><g id="ProcessOnG1033" transform="matrix(0.8660254037844387,0.49999999999999994,-0.49999999999999994,0.8660254037844387,860.8949533869063,156.60769515458674)" opacity="1.0"><path id="ProcessOnPath1034" d="M0.0 12.0C0.0 -4.0 24.0 -4.0 24.0 12.0C24.0 28.0 0.0 28.0 0.0 12.0Z" stroke="#323232" stroke-width="2.0" stroke-dasharray="none" opacity="1.0" fill="#00cc00"/></g><g id="ProcessOnG1035" transform="matrix(1.0,0.0,0.0,1.0,143.1678114016585,235.0)" opacity="1.0"><path id="ProcessOnPath1036" d="M0.0 0.0L77.16609429917077 0.0L77.16609429917077 25.0L0.0 25.0Z" stroke="none" stroke-width="0.0" stroke-dasharray="none" opacity="1.0" fill="none"/><g id="ProcessOnG1037" transform="matrix(1.0,0.0,0.0,1.0,0.0,4.375)"><text id="ProcessOnText1038" fill="#000000" font-size="13" x="37.58304714958538" y="13.325" font-family="微软雅黑" font-weight="normal" font-style="normal" text-decoration="none" family="微软雅黑" text-anchor="middle" size="13">3</text></g></g><g id="ProcessOnG1039" transform="matrix(0.5000000000000001,0.8660254037844386,-0.8660254037844386,0.5000000000000001,970.0237165659959,156.60769515458674)" opacity="1.0"><path id="ProcessOnPath1040" d="M0.0 12.0C0.0 -4.0 24.0 -4.0 24.0 12.0C24.0 28.0 0.0 28.0 0.0 12.0Z" stroke="#323232" stroke-width="2.0" stroke-dasharray="none" opacity="1.0" fill="#00cc00"/></g><g id="ProcessOnG1041" transform="matrix(1.0,0.0,0.0,1.0,825.2144588701682,160.5)" opacity="1.0"><path id="ProcessOnPath1042" d="M0.0 0.0L77.16609429917077 0.0L77.16609429917077 25.0L0.0 25.0Z" stroke="none" stroke-width="0.0" stroke-dasharray="none" opacity="1.0" fill="none"/><g id="ProcessOnG1043" transform="matrix(1.0,0.0,0.0,1.0,0.0,4.375)"><text id="ProcessOnText1044" fill="#000000" font-size="13" x="37.58304714958538" y="13.325" font-family="微软雅黑" font-weight="normal" font-style="normal" text-decoration="none" family="微软雅黑" text-anchor="middle" size="13">K2</text></g></g><g id="ProcessOnG1045" transform="matrix(0.9396926207859084,-0.3420201433256686,0.3420201433256686,0.9396926207859084,992.0,244.8279302704771)" opacity="1.0"><path id="ProcessOnPath1046" d="M0.0 12.0C0.0 -4.0 24.0 -4.0 24.0 12.0C24.0 28.0 0.0 28.0 0.0 12.0Z" stroke="#323232" stroke-width="2.0" stroke-dasharray="none" opacity="1.0" fill="#ffffff"/></g><g id="ProcessOnG1047" transform="matrix(0.8660254037844385,0.5000000000000002,-0.5000000000000002,0.8660254037844385,813.811906237321,235.60769515458674)" opacity="1.0"><path id="ProcessOnPath1048" d="M0.0 12.0C0.0 -4.0 24.0 -4.0 24.0 12.0C24.0 28.0 0.0 28.0 0.0 12.0Z" stroke="#323232" stroke-width="2.0" stroke-dasharray="none" opacity="1.0" fill="#ffffff"/></g><g id="ProcessOnG1049" transform="matrix(0.9659258262890683,-0.2588190451025207,0.2588190451025207,0.9659258262890683,899.6836147126398,243.51471862576142)" opacity="1.0"><path id="ProcessOnPath1050" d="M0.0 12.0C0.0 -4.0 24.0 -4.0 24.0 12.0C24.0 28.0 0.0 28.0 0.0 12.0Z" stroke="#323232" stroke-width="2.0" stroke-dasharray="none" opacity="1.0" fill="#ffffff"/></g><g id="ProcessOnG1051" transform="matrix(0.7660444431189778,-0.6427876096865396,0.6427876096865396,0.7660444431189778,897.4745685356727,96.52091799881075)" opacity="1.0"><path id="ProcessOnPath1052" d="M0.0 12.0C0.0 -4.0 24.0 -4.0 24.0 12.0C24.0 28.0 0.0 28.0 0.0 12.0Z" stroke="#323232" stroke-width="2.0" stroke-dasharray="none" opacity="1.0" fill="#ffffff"/></g><g id="ProcessOnG1053" transform="matrix(1.0,0.0,0.0,1.0,227.21445887016816,295.0)" opacity="1.0"><path id="ProcessOnPath1054" d="M0.0 0.0L77.16609429917077 0.0L77.16609429917077 25.0L0.0 25.0Z" stroke="none" stroke-width="0.0" stroke-dasharray="none" opacity="1.0" fill="none"/><g id="ProcessOnG1055" transform="matrix(1.0,0.0,0.0,1.0,0.0,4.375)"><text id="ProcessOnText1056" fill="#000000" font-size="13" x="37.58304714958538" y="13.325" font-family="微软雅黑" font-weight="normal" font-style="normal" text-decoration="none" family="微软雅黑" text-anchor="middle" size="13">4</text></g></g><g id="ProcessOnG1057" transform="matrix(1.0,0.0,0.0,1.0,926.3805531693389,160.5)" opacity="1.0"><path id="ProcessOnPath1058" d="M0.0 0.0L77.16609429917077 0.0L77.16609429917077 25.0L0.0 25.0Z" stroke="none" stroke-width="0.0" stroke-dasharray="none" opacity="1.0" fill="none"/><g id="ProcessOnG1059" transform="matrix(1.0,0.0,0.0,1.0,0.0,4.375)"><text id="ProcessOnText1060" fill="#000000" font-size="13" x="37.58304714958538" y="13.325" font-family="微软雅黑" font-weight="normal" font-style="normal" text-decoration="none" family="微软雅黑" text-anchor="middle" size="13">K1</text></g></g><g id="ProcessOnG1061" transform="matrix(1.0,0.0,0.0,1.0,277.79750601975354,235.0)" opacity="1.0"><path id="ProcessOnPath1062" d="M0.0 0.0L77.16609429917077 0.0L77.16609429917077 25.0L0.0 25.0Z" stroke="none" stroke-width="0.0" stroke-dasharray="none" opacity="1.0" fill="none"/><g id="ProcessOnG1063" transform="matrix(1.0,0.0,0.0,1.0,0.0,4.375)"><text id="ProcessOnText1064" fill="#000000" font-size="13" x="37.58304714958538" y="13.325" font-family="微软雅黑" font-weight="normal" font-style="normal" text-decoration="none" family="微软雅黑" text-anchor="middle" size="13">5</text></g></g><g id="ProcessOnG1065" transform="matrix(1.0,0.0,0.0,1.0,317.79750601975354,144.25)" opacity="1.0"><path id="ProcessOnPath1066" d="M0.0 0.0L77.16609429917077 0.0L77.16609429917077 25.0L0.0 25.0Z" stroke="none" stroke-width="0.0" stroke-dasharray="none" opacity="1.0" fill="none"/><g id="ProcessOnG1067" transform="matrix(1.0,0.0,0.0,1.0,0.0,4.375)"><text id="ProcessOnText1068" fill="#000000" font-size="13" x="37.58304714958538" y="13.325" font-family="微软雅黑" font-weight="normal" font-style="normal" text-decoration="none" family="微软雅黑" text-anchor="middle" size="13">6</text></g></g><g id="ProcessOnG1069" transform="matrix(1.0,0.0,0.0,1.0,779.6211639331489,242.5)" opacity="1.0"><path id="ProcessOnPath1070" d="M0.0 0.0L77.16609429917077 0.0L77.16609429917077 25.0L0.0 25.0Z" stroke="none" stroke-width="0.0" stroke-dasharray="none" opacity="1.0" fill="none"/><g id="ProcessOnG1071" transform="matrix(1.0,0.0,0.0,1.0,0.0,4.375)"><text id="ProcessOnText1072" fill="#000000" font-size="13" x="37.58304714958538" y="13.325" font-family="微软雅黑" font-weight="normal" font-style="normal" text-decoration="none" family="微软雅黑" text-anchor="middle" size="13">3</text></g></g><g id="ProcessOnG1073" transform="matrix(1.0,0.0,0.0,1.0,875.7975060197534,239.5)" opacity="1.0"><path id="ProcessOnPath1074" d="M0.0 0.0L77.16609429917077 0.0L77.16609429917077 25.0L0.0 25.0Z" stroke="none" stroke-width="0.0" stroke-dasharray="none" opacity="1.0" fill="none"/><g id="ProcessOnG1075" transform="matrix(1.0,0.0,0.0,1.0,0.0,4.375)"><text id="ProcessOnText1076" fill="#000000" font-size="13" x="37.58304714958538" y="13.325" font-family="微软雅黑" font-weight="normal" font-style="normal" text-decoration="none" family="微软雅黑" text-anchor="middle" size="13">4</text></g></g><g id="ProcessOnG1077" transform="matrix(1.0,0.0,0.0,1.0,875.7975060197534,85.5)" opacity="1.0"><path id="ProcessOnPath1078" d="M0.0 0.0L77.16609429917077 0.0L77.16609429917077 25.0L0.0 25.0Z" stroke="none" stroke-width="0.0" stroke-dasharray="none" opacity="1.0" fill="none"/><g id="ProcessOnG1079" transform="matrix(1.0,0.0,0.0,1.0,0.0,4.375)"><text id="ProcessOnText1080" fill="#000000" font-size="13" x="37.58304714958538" y="13.325" font-family="微软雅黑" font-weight="normal" font-style="normal" text-decoration="none" family="微软雅黑" text-anchor="middle" size="13">5</text></g></g><g id="ProcessOnG1081" transform="matrix(1.0,0.0,0.0,1.0,968.7975060197535,239.5)" opacity="1.0"><path id="ProcessOnPath1082" d="M0.0 0.0L77.16609429917077 0.0L77.16609429917077 25.0L0.0 25.0Z" stroke="none" stroke-width="0.0" stroke-dasharray="none" opacity="1.0" fill="none"/><g id="ProcessOnG1083" transform="matrix(1.0,0.0,0.0,1.0,0.0,4.375)"><text id="ProcessOnText1084" fill="#000000" font-size="13" x="37.58304714958538" y="13.325" font-family="微软雅黑" font-weight="normal" font-style="normal" text-decoration="none" family="微软雅黑" text-anchor="middle" size="13">6</text></g></g><g id="ProcessOnG1085" transform="matrix(1.0,0.0,0.0,1.0,404.9636003189243,193.0)" opacity="1.0"><path id="ProcessOnPath1086" d="M0.0 6.6000000000000005L88.0363996810757 6.6000000000000005L88.0363996810757 0.0L98.0363996810757 10.0L88.0363996810757 20.0L88.0363996810757 13.4L0.0 13.4L0.0 6.6000000000000005Z" stroke="#323232" stroke-width="2.0" stroke-dasharray="none" opacity="1.0" fill="#ccffcc"/></g><g id="ProcessOnG1087" transform="matrix(1.0,0.0,0.0,1.0,401.96360031892436,160.5)" opacity="1.0"><path id="ProcessOnPath1088" d="M0.0 0.0L92.01819984053782 0.0L92.01819984053782 35.75L0.0 35.75Z" stroke="none" stroke-width="0.0" stroke-dasharray="none" opacity="1.0" fill="none"/><g id="ProcessOnG1089" transform="matrix(1.0,0.0,0.0,1.0,0.0,-6.5)"><text id="ProcessOnText1090" fill="#ff0000" font-size="13" x="45.00909992026891" y="13.325" font-family="微软雅黑" font-weight="bold" font-style="normal" text-decoration="none" family="微软雅黑" text-anchor="middle" size="13">LR型，先以K2</text><text id="ProcessOnText1091" fill="#ff0000" font-size="13" x="45.00909992026891" y="29.575" font-family="微软雅黑" font-weight="bold" font-style="normal" text-decoration="none" family="微软雅黑" text-anchor="middle" size="13">为基础进行左</text><text id="ProcessOnText1092" fill="#ff0000" font-size="13" x="45.00909992026891" y="45.825" font-family="微软雅黑" font-weight="bold" font-style="normal" text-decoration="none" family="微软雅黑" text-anchor="middle" size="13">旋</text></g></g><g id="ProcessOnG1093"><path id="ProcessOnPath1094" d="M273.51095733599203 297.8074666825722L307.8952717951003 255.48528137423858" stroke="#323232" stroke-width="2.0" stroke-dasharray="none" fill="none"/></g><g id="ProcessOnG1095" transform="matrix(0.7660444431189778,-0.6427876096865396,0.6427876096865396,0.7660444431189778,612.4279210671631,101.52091799881075)" opacity="1.0"><path id="ProcessOnPath1096" d="M0.0 12.0C0.0 -4.0 24.0 -4.0 24.0 12.0C24.0 28.0 0.0 28.0 0.0 12.0Z" stroke="#323232" stroke-width="2.0" stroke-dasharray="none" opacity="1.0" fill="#00cc00"/></g><g id="ProcessOnG1097" transform="matrix(0.9396926207859084,-0.3420201433256686,0.3420201433256686,0.9396926207859084,661.0,159.8279302704771)" opacity="1.0"><path id="ProcessOnPath1098" d="M0.0 12.0C0.0 -4.0 24.0 -4.0 24.0 12.0C24.0 28.0 0.0 28.0 0.0 12.0Z" stroke="#323232" stroke-width="2.0" stroke-dasharray="none" opacity="1.0" fill="#ffffff"/></g><g id="ProcessOnG1099" transform="matrix(0.8191520442889918,0.573576436351046,-0.573576436351046,0.8191520442889918,529.3403509370643,210.28725823231954)" opacity="1.0"><path id="ProcessOnPath1100" d="M0.0 12.0C0.0 -4.0 24.0 -4.0 24.0 12.0C24.0 28.0 0.0 28.0 0.0 12.0Z" stroke="#323232" stroke-width="2.0" stroke-dasharray="none" opacity="1.0" fill="#00cc00"/></g><g id="ProcessOnG1101"><path id="ProcessOnPath1102" d="M637.0473570170677 112.19253331742773L672.2763114494309 155.7236885505691" stroke="#323232" stroke-width="2.0" stroke-dasharray="none" fill="none"/></g><g id="ProcessOnG1103" transform="matrix(0.7071067811865474,-0.7071067811865477,0.7071067811865477,0.7071067811865474,570.4099904208617,300.0)" opacity="1.0"><path id="ProcessOnPath1104" d="M0.0 12.0C0.0 -4.0 24.0 -4.0 24.0 12.0C24.0 28.0 0.0 28.0 0.0 12.0Z" stroke="#323232" stroke-width="2.0" stroke-dasharray="none" opacity="1.0" fill="#ffffff"/></g><g id="ProcessOnG1105" transform="matrix(0.7071067811865476,0.7071067811865475,-0.7071067811865475,0.7071067811865476,479.2872582323196,283.02943725152284)" opacity="1.0"><path id="ProcessOnPath1106" d="M0.0 12.0C0.0 -4.0 24.0 -4.0 24.0 12.0C24.0 28.0 0.0 28.0 0.0 12.0Z" stroke="#323232" stroke-width="2.0" stroke-dasharray="none" opacity="1.0" fill="#ffffff"/></g><g id="ProcessOnG1107"><path id="ProcessOnPath1108" d="M525.4043409961071 236.8298245314679L487.7725396065582 291.5147186257614" stroke="#323232" stroke-width="2.0" stroke-dasharray="none" fill="none"/></g><g id="ProcessOnG1109"><path id="ProcessOnPath1110" d="M542.1170827637875 233.88291723621256L578.8952717951004 291.5147186257614" stroke="#323232" stroke-width="2.0" stroke-dasharray="none" fill="none"/></g><g id="ProcessOnG1111" transform="matrix(0.6427876096865393,-0.7660444431189781,0.7660444431189781,0.6427876096865393,559.5940153663338,167.72908200118925)" opacity="1.0"><path id="ProcessOnPath1112" d="M0.0 12.0C0.0 -4.0 24.0 -4.0 24.0 12.0C24.0 28.0 0.0 28.0 0.0 12.0Z" stroke="#323232" stroke-width="2.0" stroke-dasharray="none" opacity="1.0" fill="#ffffff"/></g><g id="ProcessOnG1113" transform="matrix(1.0,0.0,0.0,1.0,583.8805531693389,92.75)" opacity="1.0"><path id="ProcessOnPath1114" d="M0.0 0.0L94.0 0.0L94.0 20.0L0.0 20.0Z" stroke="none" stroke-width="0.0" stroke-dasharray="none" opacity="1.0" fill="none"/><g id="ProcessOnG1115" transform="matrix(1.0,0.0,0.0,1.0,0.0,1.875)"><text id="ProcessOnText1116" fill="#000000" font-size="13" x="46.0" y="13.325" font-family="微软雅黑" font-weight="normal" font-style="normal" text-decoration="none" family="微软雅黑" text-anchor="middle" size="13">K1</text></g></g><g id="ProcessOnG1117" transform="matrix(1.0,0.0,0.0,1.0,500.3339057008292,217.0)" opacity="1.0"><path id="ProcessOnPath1118" d="M0.0 0.0L64.16609429917077 0.0L64.16609429917077 20.0L0.0 20.0Z" stroke="none" stroke-width="0.0" stroke-dasharray="none" opacity="1.0" fill="none"/><g id="ProcessOnG1119" transform="matrix(1.0,0.0,0.0,1.0,0.0,1.875)"><text id="ProcessOnText1120" fill="#000000" font-size="13" x="31.083047149585383" y="13.325" font-family="微软雅黑" font-weight="normal" font-style="normal" text-decoration="none" family="微软雅黑" text-anchor="middle" size="13">K2</text></g></g><g id="ProcessOnG1121" transform="matrix(1.0,0.0,0.0,1.0,440.7042110827342,287.5)" opacity="1.0"><path id="ProcessOnPath1122" d="M0.0 0.0L77.16609429917077 0.0L77.16609429917077 25.0L0.0 25.0Z" stroke="none" stroke-width="0.0" stroke-dasharray="none" opacity="1.0" fill="none"/><g id="ProcessOnG1123" transform="matrix(1.0,0.0,0.0,1.0,0.0,4.375)"><text id="ProcessOnText1124" fill="#000000" font-size="13" x="37.58304714958538" y="13.325" font-family="微软雅黑" font-weight="normal" font-style="normal" text-decoration="none" family="微软雅黑" text-anchor="middle" size="13">3</text></g></g><g id="ProcessOnG1125" transform="matrix(1.0,0.0,0.0,1.0,548.7975060197534,287.5)" opacity="1.0"><path id="ProcessOnPath1126" d="M0.0 0.0L77.16609429917077 0.0L77.16609429917077 25.0L0.0 25.0Z" stroke="none" stroke-width="0.0" stroke-dasharray="none" opacity="1.0" fill="none"/><g id="ProcessOnG1127" transform="matrix(1.0,0.0,0.0,1.0,0.0,4.375)"><text id="ProcessOnText1128" fill="#000000" font-size="13" x="37.58304714958538" y="13.325" font-family="微软雅黑" font-weight="normal" font-style="normal" text-decoration="none" family="微软雅黑" text-anchor="middle" size="13">4</text></g></g><g id="ProcessOnG1129" transform="matrix(1.0,0.0,0.0,1.0,537.9169528504146,154.25)" opacity="1.0"><path id="ProcessOnPath1130" d="M0.0 0.0L77.16609429917077 0.0L77.16609429917077 25.0L0.0 25.0Z" stroke="none" stroke-width="0.0" stroke-dasharray="none" opacity="1.0" fill="none"/><g id="ProcessOnG1131" transform="matrix(1.0,0.0,0.0,1.0,0.0,4.375)"><text id="ProcessOnText1132" fill="#000000" font-size="13" x="37.58304714958538" y="13.325" font-family="微软雅黑" font-weight="normal" font-style="normal" text-decoration="none" family="微软雅黑" text-anchor="middle" size="13">5</text></g></g><g id="ProcessOnG1133" transform="matrix(1.0,0.0,0.0,1.0,637.7975060197535,154.25)" opacity="1.0"><path id="ProcessOnPath1134" d="M0.0 0.0L77.16609429917077 0.0L77.16609429917077 25.0L0.0 25.0Z" stroke="none" stroke-width="0.0" stroke-dasharray="none" opacity="1.0" fill="none"/><g id="ProcessOnG1135" transform="matrix(1.0,0.0,0.0,1.0,0.0,4.375)"><text id="ProcessOnText1136" fill="#000000" font-size="13" x="37.58304714958538" y="13.325" font-family="微软雅黑" font-weight="normal" font-style="normal" text-decoration="none" family="微软雅黑" text-anchor="middle" size="13">6</text></g></g><g id="ProcessOnG1137"><path id="ProcessOnPath1138" d="M584.2134513162384 157.05746668257225L620.1413723834015 110.71345131623849" stroke="#323232" stroke-width="2.0" stroke-dasharray="none" fill="none"/></g><g id="ProcessOnG1139"><path id="ProcessOnPath1140" d="M568.7865486837616 175.44253331742775L539.1701754685321 217.1701754685321" stroke="#323232" stroke-width="2.0" stroke-dasharray="none" fill="none"/></g><g id="ProcessOnG1141"><path id="ProcessOnPath1142" d="M905.1880198519112 105.71345131623848L871.2872582323196 162.60769515458674" stroke="#323232" stroke-width="2.0" stroke-dasharray="none" fill="none"/></g><g id="ProcessOnG1143"><path id="ProcessOnPath1144" d="M859.2872582323196 183.39230484541326L824.2042110827342 241.60769515458674" stroke="#323232" stroke-width="2.0" stroke-dasharray="none" fill="none"/></g><g id="ProcessOnG1145"><path id="ProcessOnPath1146" d="M911.2747246281086 240.40889008453118L875.6795630777328 179.0" stroke="#323232" stroke-width="2.0" stroke-dasharray="none" fill="none"/></g><g id="ProcessOnG1147"><path id="ProcessOnPath1148" d="M922.0940044855773 107.19253331742775L959.6314117205826 162.60769515458674" stroke="#323232" stroke-width="2.0" stroke-dasharray="none" fill="none"/></g><g id="ProcessOnG1149"><path id="ProcessOnPath1150" d="M971.6314117205826 183.39230484541326L1003.2763114494309 240.7236885505691" stroke="#323232" stroke-width="2.0" stroke-dasharray="none" fill="none"/></g><g id="ProcessOnG1151" transform="matrix(1.0,0.0,0.0,1.0,722.9636003189244,160.5)" opacity="1.0"><path id="ProcessOnPath1152" d="M0.0 0.0L75.03639968107564 0.0L75.03639968107564 35.75L0.0 35.75Z" stroke="none" stroke-width="0.0" stroke-dasharray="none" opacity="1.0" fill="none"/><g id="ProcessOnG1153" transform="matrix(1.0,0.0,0.0,1.0,0.0,1.625)"><text id="ProcessOnText1154" fill="#ff0000" font-size="13" x="36.51819984053782" y="13.325" font-family="微软雅黑" font-weight="bold" font-style="normal" text-decoration="none" family="微软雅黑" text-anchor="middle" size="13">再以K1为基</text><text id="ProcessOnText1155" fill="#ff0000" font-size="13" x="36.51819984053782" y="29.575" font-family="微软雅黑" font-weight="bold" font-style="normal" text-decoration="none" family="微软雅黑" text-anchor="middle" size="13">础进行右旋</text></g></g><g id="ProcessOnG1156" transform="matrix(1.0,0.0,0.0,1.0,714.9636003189244,193.0)" opacity="1.0"><path id="ProcessOnPath1157" d="M0.0 6.6000000000000005L88.0363996810757 6.6000000000000005L88.0363996810757 0.0L98.0363996810757 10.0L88.0363996810757 20.0L88.0363996810757 13.4L0.0 13.4L0.0 6.6000000000000005Z" stroke="#323232" stroke-width="2.0" stroke-dasharray="none" opacity="1.0" fill="#ccffcc"/></g></g></g></svg>