<svg xmlns="http://www.w3.org/2000/svg" xmlns:xlink="http://www.w3.org/1999/xlink" id="processonSvg1000" viewBox="28.0 24.0 552.0 442.0" width="552.0" height="442.0"><defs id="ProcessOnDefs1001"/><g id="ProcessOnG1002"><path id="ProcessOnPath1003" d="M28.0 24.0H580.0V466.0H28.0V24.0Z" fill="none"/><g id="ProcessOnG1004"><g id="ProcessOnG1005" transform="matrix(0.8191520442889918,0.573576436351046,-0.573576436351046,0.8191520442889918,251.92145611665157,95.8763509532796)" opacity="1.0"><path id="ProcessOnPath1006" d="M0.0 10.5C0.0 -3.5 21.0 -3.5 21.0 10.5C21.0 24.5 0.0 24.5 0.0 10.5Z" stroke="#323232" stroke-width="2.0" stroke-dasharray="none" opacity="1.0" fill="#000000"/></g><g id="ProcessOnG1007" transform="matrix(0.7660444431189778,-0.6427876096865396,0.6427876096865396,0.7660444431189778,278.7072634455421,150.2058032489594)" opacity="1.0"><path id="ProcessOnPath1008" d="M0.0 10.5C0.0 -3.5 21.0 -3.5 21.0 10.5C21.0 24.5 0.0 24.5 0.0 10.5Z" stroke="#323232" stroke-width="2.0" stroke-dasharray="none" opacity="1.0" fill="#cc0000"/></g><g id="ProcessOnG1009" transform="matrix(0.9063077870366498,0.4226182617406998,-0.4226182617406998,0.9063077870366498,224.42125998439252,137.54627648783782)" opacity="1.0"><path id="ProcessOnPath1010" d="M0.0 10.5C0.0 -3.5 21.0 -3.5 21.0 10.5C21.0 24.5 0.0 24.5 0.0 10.5Z" stroke="#323232" stroke-width="2.0" stroke-dasharray="none" opacity="1.0" fill="#cc0000"/></g><g id="ProcessOnG1011" transform="matrix(0.8660254037844387,0.49999999999999994,-0.49999999999999994,0.8660254037844387,260.65673326026337,184.1567332602634)" opacity="1.0"><path id="ProcessOnPath1012" d="M0.0 10.5C0.0 -3.5 21.0 -3.5 21.0 10.5C21.0 24.5 0.0 24.5 0.0 10.5Z" stroke="#323232" stroke-width="2.0" stroke-dasharray="none" opacity="1.0" fill="#cc0000"/></g><g id="ProcessOnG1013"><path id="ProcessOnPath1014" d="M263.1010964650344 116.52255258168599L286.75073009829134 143.45653334725074" stroke="#323232" stroke-width="2.0" stroke-dasharray="none" fill="none"/></g><g id="ProcessOnG1015"><path id="ProcessOnPath1016" d="M233.93749174827735 141.98376823611517L248.477447418314 119.10109646503442" stroke="#323232" stroke-width="2.0" stroke-dasharray="none" fill="none"/></g><g id="ProcessOnG1017" transform="matrix(1.0,0.0,0.0,1.0,218.0,100.5)" opacity="1.0"><path id="ProcessOnPath1018" d="M0.0 0.0L73.0 0.0L73.0 20.0L0.0 20.0Z" stroke="none" stroke-width="0.0" stroke-dasharray="none" opacity="1.0" fill="none"/><g id="ProcessOnG1019" transform="matrix(1.0,0.0,0.0,1.0,0.0,1.875)"><text id="ProcessOnText1020" fill="#ffffff" font-size="13" x="35.5" y="13.325" font-family="微软雅黑" font-weight="normal" font-style="normal" text-decoration="none" family="微软雅黑" text-anchor="middle" size="13">1</text></g></g><g id="ProcessOnG1021" transform="matrix(1.0,0.0,0.0,1.0,193.0,141.5)" opacity="1.0"><path id="ProcessOnPath1022" d="M0.0 0.0L73.0 0.0L73.0 20.0L0.0 20.0Z" stroke="none" stroke-width="0.0" stroke-dasharray="none" opacity="1.0" fill="none"/><g id="ProcessOnG1023" transform="matrix(1.0,0.0,0.0,1.0,0.0,1.875)"><text id="ProcessOnText1024" fill="#ffffff" font-size="13" x="35.5" y="13.325" font-family="微软雅黑" font-weight="normal" font-style="normal" text-decoration="none" family="微软雅黑" text-anchor="middle" size="13">2</text></g></g><g id="ProcessOnG1025" transform="matrix(1.0,0.0,0.0,1.0,257.0,141.5)" opacity="1.0"><path id="ProcessOnPath1026" d="M0.0 0.0L73.0 0.0L73.0 20.0L0.0 20.0Z" stroke="none" stroke-width="0.0" stroke-dasharray="none" opacity="1.0" fill="none"/><g id="ProcessOnG1027" transform="matrix(1.0,0.0,0.0,1.0,0.0,1.875)"><text id="ProcessOnText1028" fill="#ffffff" font-size="13" x="35.5" y="13.325" font-family="微软雅黑" font-weight="normal" font-style="normal" text-decoration="none" family="微软雅黑" text-anchor="middle" size="13">3</text></g></g><g id="ProcessOnG1029" transform="matrix(1.0,0.0,0.0,1.0,228.0,188.5)" opacity="1.0"><path id="ProcessOnPath1030" d="M0.0 0.0L73.0 0.0L73.0 20.0L0.0 20.0Z" stroke="none" stroke-width="0.0" stroke-dasharray="none" opacity="1.0" fill="none"/><g id="ProcessOnG1031" transform="matrix(1.0,0.0,0.0,1.0,0.0,1.875)"><text id="ProcessOnText1032" fill="#ffffff" font-size="13" x="35.5" y="13.325" font-family="微软雅黑" font-weight="normal" font-style="normal" text-decoration="none" family="微软雅黑" text-anchor="middle" size="13">4</text></g></g><g id="ProcessOnG1033"><path id="ProcessOnPath1034" d="M269.75 189.4067332602634L285.45653334725074 158.2492699017087" stroke="#323232" stroke-width="2.0" stroke-dasharray="none" fill="none"/></g><g id="ProcessOnG1035" transform="matrix(0.8191520442889918,0.573576436351046,-0.573576436351046,0.8191520442889918,481.9214561166516,95.8763509532796)" opacity="1.0"><path id="ProcessOnPath1036" d="M0.0 10.5C0.0 -3.5 21.0 -3.5 21.0 10.5C21.0 24.5 0.0 24.5 0.0 10.5Z" stroke="#323232" stroke-width="2.0" stroke-dasharray="none" opacity="1.0" fill="#cc0000"/></g><g id="ProcessOnG1037" transform="matrix(0.7660444431189778,-0.6427876096865396,0.6427876096865396,0.7660444431189778,508.7072634455421,150.2058032489594)" opacity="1.0"><path id="ProcessOnPath1038" d="M0.0 10.5C0.0 -3.5 21.0 -3.5 21.0 10.5C21.0 24.5 0.0 24.5 0.0 10.5Z" stroke="#323232" stroke-width="2.0" stroke-dasharray="none" opacity="1.0" fill="#000000"/></g><g id="ProcessOnG1039" transform="matrix(0.9063077870366498,0.4226182617406998,-0.4226182617406998,0.9063077870366498,454.4212599843925,137.54627648783782)" opacity="1.0"><path id="ProcessOnPath1040" d="M0.0 10.5C0.0 -3.5 21.0 -3.5 21.0 10.5C21.0 24.5 0.0 24.5 0.0 10.5Z" stroke="#323232" stroke-width="2.0" stroke-dasharray="none" opacity="1.0" fill="#000000"/></g><g id="ProcessOnG1041" transform="matrix(0.8660254037844387,0.49999999999999994,-0.49999999999999994,0.8660254037844387,490.65673326026337,184.1567332602634)" opacity="1.0"><path id="ProcessOnPath1042" d="M0.0 10.5C0.0 -3.5 21.0 -3.5 21.0 10.5C21.0 24.5 0.0 24.5 0.0 10.5Z" stroke="#323232" stroke-width="2.0" stroke-dasharray="none" opacity="1.0" fill="#cc0000"/></g><g id="ProcessOnG1043"><path id="ProcessOnPath1044" d="M493.1010964650344 116.522552581686L516.7507300982913 143.45653334725074" stroke="#323232" stroke-width="2.0" stroke-dasharray="none" fill="none"/></g><g id="ProcessOnG1045"><path id="ProcessOnPath1046" d="M463.93749174827735 141.98376823611517L478.477447418314 119.1010964650344" stroke="#323232" stroke-width="2.0" stroke-dasharray="none" fill="none"/></g><g id="ProcessOnG1047" transform="matrix(1.0,0.0,0.0,1.0,448.0,100.5)" opacity="1.0"><path id="ProcessOnPath1048" d="M0.0 0.0L73.0 0.0L73.0 20.0L0.0 20.0Z" stroke="none" stroke-width="0.0" stroke-dasharray="none" opacity="1.0" fill="none"/><g id="ProcessOnG1049" transform="matrix(1.0,0.0,0.0,1.0,0.0,1.875)"><text id="ProcessOnText1050" fill="#ffffff" font-size="13" x="35.5" y="13.325" font-family="微软雅黑" font-weight="normal" font-style="normal" text-decoration="none" family="微软雅黑" text-anchor="middle" size="13">1</text></g></g><g id="ProcessOnG1051" transform="matrix(1.0,0.0,0.0,1.0,423.0,141.5)" opacity="1.0"><path id="ProcessOnPath1052" d="M0.0 0.0L73.0 0.0L73.0 20.0L0.0 20.0Z" stroke="none" stroke-width="0.0" stroke-dasharray="none" opacity="1.0" fill="none"/><g id="ProcessOnG1053" transform="matrix(1.0,0.0,0.0,1.0,0.0,1.875)"><text id="ProcessOnText1054" fill="#ffffff" font-size="13" x="35.5" y="13.325" font-family="微软雅黑" font-weight="normal" font-style="normal" text-decoration="none" family="微软雅黑" text-anchor="middle" size="13">2</text></g></g><g id="ProcessOnG1055" transform="matrix(1.0,0.0,0.0,1.0,487.0,141.5)" opacity="1.0"><path id="ProcessOnPath1056" d="M0.0 0.0L73.0 0.0L73.0 20.0L0.0 20.0Z" stroke="none" stroke-width="0.0" stroke-dasharray="none" opacity="1.0" fill="none"/><g id="ProcessOnG1057" transform="matrix(1.0,0.0,0.0,1.0,0.0,1.875)"><text id="ProcessOnText1058" fill="#ffffff" font-size="13" x="35.5" y="13.325" font-family="微软雅黑" font-weight="normal" font-style="normal" text-decoration="none" family="微软雅黑" text-anchor="middle" size="13">3</text></g></g><g id="ProcessOnG1059" transform="matrix(1.0,0.0,0.0,1.0,458.0,188.5)" opacity="1.0"><path id="ProcessOnPath1060" d="M0.0 0.0L73.0 0.0L73.0 20.0L0.0 20.0Z" stroke="none" stroke-width="0.0" stroke-dasharray="none" opacity="1.0" fill="none"/><g id="ProcessOnG1061" transform="matrix(1.0,0.0,0.0,1.0,0.0,1.875)"><text id="ProcessOnText1062" fill="#ffffff" font-size="13" x="35.5" y="13.325" font-family="微软雅黑" font-weight="normal" font-style="normal" text-decoration="none" family="微软雅黑" text-anchor="middle" size="13">4</text></g></g><g id="ProcessOnG1063"><path id="ProcessOnPath1064" d="M499.75 189.4067332602634L515.4565333472508 158.2492699017087" stroke="#323232" stroke-width="2.0" stroke-dasharray="none" fill="none"/></g><g id="ProcessOnG1065" transform="matrix(0.8191520442889918,0.573576436351046,-0.573576436351046,0.8191520442889918,251.92145611665157,335.8763509532796)" opacity="1.0"><path id="ProcessOnPath1066" d="M0.0 10.5C0.0 -3.5 21.0 -3.5 21.0 10.5C21.0 24.5 0.0 24.5 0.0 10.5Z" stroke="#323232" stroke-width="2.0" stroke-dasharray="none" opacity="1.0" fill="#000000"/></g><g id="ProcessOnG1067" transform="matrix(0.7660444431189778,-0.6427876096865396,0.6427876096865396,0.7660444431189778,278.7072634455421,390.2058032489594)" opacity="1.0"><path id="ProcessOnPath1068" d="M0.0 10.5C0.0 -3.5 21.0 -3.5 21.0 10.5C21.0 24.5 0.0 24.5 0.0 10.5Z" stroke="#323232" stroke-width="2.0" stroke-dasharray="none" opacity="1.0" fill="#cc0000"/></g><g id="ProcessOnG1069" transform="matrix(0.9063077870366498,0.4226182617406998,-0.4226182617406998,0.9063077870366498,224.42125998439252,377.5462764878378)" opacity="1.0"><path id="ProcessOnPath1070" d="M0.0 10.5C0.0 -3.5 21.0 -3.5 21.0 10.5C21.0 24.5 0.0 24.5 0.0 10.5Z" stroke="#323232" stroke-width="2.0" stroke-dasharray="none" opacity="1.0" fill="#cc0000"/></g><g id="ProcessOnG1071" transform="matrix(0.8660254037844387,0.49999999999999994,-0.49999999999999994,0.8660254037844387,199.6567332602634,421.1567332602634)" opacity="1.0"><path id="ProcessOnPath1072" d="M0.0 10.5C0.0 -3.5 21.0 -3.5 21.0 10.5C21.0 24.5 0.0 24.5 0.0 10.5Z" stroke="#323232" stroke-width="2.0" stroke-dasharray="none" opacity="1.0" fill="#cc0000"/></g><g id="ProcessOnG1073"><path id="ProcessOnPath1074" d="M263.1010964650344 356.522552581686L286.75073009829134 383.45653334725074" stroke="#323232" stroke-width="2.0" stroke-dasharray="none" fill="none"/></g><g id="ProcessOnG1075"><path id="ProcessOnPath1076" d="M233.93749174827735 381.98376823611517L248.477447418314 359.1010964650344" stroke="#323232" stroke-width="2.0" stroke-dasharray="none" fill="none"/></g><g id="ProcessOnG1077" transform="matrix(1.0,0.0,0.0,1.0,219.0,340.5)" opacity="1.0"><path id="ProcessOnPath1078" d="M0.0 0.0L73.0 0.0L73.0 20.0L0.0 20.0Z" stroke="none" stroke-width="0.0" stroke-dasharray="none" opacity="1.0" fill="none"/><g id="ProcessOnG1079" transform="matrix(1.0,0.0,0.0,1.0,0.0,1.875)"><text id="ProcessOnText1080" fill="#ffffff" font-size="13" x="35.5" y="13.325" font-family="微软雅黑" font-weight="normal" font-style="normal" text-decoration="none" family="微软雅黑" text-anchor="middle" size="13">3</text></g></g><g id="ProcessOnG1081" transform="matrix(1.0,0.0,0.0,1.0,193.0,381.5)" opacity="1.0"><path id="ProcessOnPath1082" d="M0.0 0.0L73.0 0.0L73.0 20.0L0.0 20.0Z" stroke="none" stroke-width="0.0" stroke-dasharray="none" opacity="1.0" fill="none"/><g id="ProcessOnG1083" transform="matrix(1.0,0.0,0.0,1.0,0.0,1.875)"><text id="ProcessOnText1084" fill="#ffffff" font-size="13" x="35.5" y="13.325" font-family="微软雅黑" font-weight="normal" font-style="normal" text-decoration="none" family="微软雅黑" text-anchor="middle" size="13">2</text></g></g><g id="ProcessOnG1085" transform="matrix(1.0,0.0,0.0,1.0,167.0,425.5)" opacity="1.0"><path id="ProcessOnPath1086" d="M0.0 0.0L73.0 0.0L73.0 20.0L0.0 20.0Z" stroke="none" stroke-width="0.0" stroke-dasharray="none" opacity="1.0" fill="none"/><g id="ProcessOnG1087" transform="matrix(1.0,0.0,0.0,1.0,0.0,1.875)"><text id="ProcessOnText1088" fill="#ffffff" font-size="13" x="35.5" y="13.325" font-family="微软雅黑" font-weight="normal" font-style="normal" text-decoration="none" family="微软雅黑" text-anchor="middle" size="13">1</text></g></g><g id="ProcessOnG1089" transform="matrix(1.0,0.0,0.0,1.0,257.0,381.5)" opacity="1.0"><path id="ProcessOnPath1090" d="M0.0 0.0L73.0 0.0L73.0 20.0L0.0 20.0Z" stroke="none" stroke-width="0.0" stroke-dasharray="none" opacity="1.0" fill="none"/><g id="ProcessOnG1091" transform="matrix(1.0,0.0,0.0,1.0,0.0,1.875)"><text id="ProcessOnText1092" fill="#ffffff" font-size="13" x="35.5" y="13.325" font-family="微软雅黑" font-weight="normal" font-style="normal" text-decoration="none" family="微软雅黑" text-anchor="middle" size="13">4</text></g></g><g id="ProcessOnG1093"><path id="ProcessOnPath1094" d="M208.75 426.4067332602634L225.06250825172265 401.01623176388483" stroke="#323232" stroke-width="2.0" stroke-dasharray="none" fill="none"/></g><g id="ProcessOnG1095" transform="matrix(0.8191520442889918,0.573576436351046,-0.573576436351046,0.8191520442889918,481.9214561166516,335.8763509532796)" opacity="1.0"><path id="ProcessOnPath1096" d="M0.0 10.5C0.0 -3.5 21.0 -3.5 21.0 10.5C21.0 24.5 0.0 24.5 0.0 10.5Z" stroke="#323232" stroke-width="2.0" stroke-dasharray="none" opacity="1.0" fill="#cc0000"/></g><g id="ProcessOnG1097" transform="matrix(0.7660444431189778,-0.6427876096865396,0.6427876096865396,0.7660444431189778,508.7072634455421,390.2058032489594)" opacity="1.0"><path id="ProcessOnPath1098" d="M0.0 10.5C0.0 -3.5 21.0 -3.5 21.0 10.5C21.0 24.5 0.0 24.5 0.0 10.5Z" stroke="#323232" stroke-width="2.0" stroke-dasharray="none" opacity="1.0" fill="#000000"/></g><g id="ProcessOnG1099" transform="matrix(0.9063077870366498,0.4226182617406998,-0.4226182617406998,0.9063077870366498,454.4212599843925,377.5462764878378)" opacity="1.0"><path id="ProcessOnPath1100" d="M0.0 10.5C0.0 -3.5 21.0 -3.5 21.0 10.5C21.0 24.5 0.0 24.5 0.0 10.5Z" stroke="#323232" stroke-width="2.0" stroke-dasharray="none" opacity="1.0" fill="#000000"/></g><g id="ProcessOnG1101" transform="matrix(0.8660254037844387,0.49999999999999994,-0.49999999999999994,0.8660254037844387,429.65673326026337,421.1567332602634)" opacity="1.0"><path id="ProcessOnPath1102" d="M0.0 10.5C0.0 -3.5 21.0 -3.5 21.0 10.5C21.0 24.5 0.0 24.5 0.0 10.5Z" stroke="#323232" stroke-width="2.0" stroke-dasharray="none" opacity="1.0" fill="#cc0000"/></g><g id="ProcessOnG1103"><path id="ProcessOnPath1104" d="M493.1010964650344 356.522552581686L516.7507300982913 383.45653334725074" stroke="#323232" stroke-width="2.0" stroke-dasharray="none" fill="none"/></g><g id="ProcessOnG1105"><path id="ProcessOnPath1106" d="M463.93749174827735 381.98376823611517L478.477447418314 359.1010964650344" stroke="#323232" stroke-width="2.0" stroke-dasharray="none" fill="none"/></g><g id="ProcessOnG1107" transform="matrix(1.0,0.0,0.0,1.0,448.0,340.5)" opacity="1.0"><path id="ProcessOnPath1108" d="M0.0 0.0L73.0 0.0L73.0 20.0L0.0 20.0Z" stroke="none" stroke-width="0.0" stroke-dasharray="none" opacity="1.0" fill="none"/><g id="ProcessOnG1109" transform="matrix(1.0,0.0,0.0,1.0,0.0,1.875)"><text id="ProcessOnText1110" fill="#ffffff" font-size="13" x="35.5" y="13.325" font-family="微软雅黑" font-weight="normal" font-style="normal" text-decoration="none" family="微软雅黑" text-anchor="middle" size="13">3</text></g></g><g id="ProcessOnG1111" transform="matrix(1.0,0.0,0.0,1.0,423.0,381.5)" opacity="1.0"><path id="ProcessOnPath1112" d="M0.0 0.0L73.0 0.0L73.0 20.0L0.0 20.0Z" stroke="none" stroke-width="0.0" stroke-dasharray="none" opacity="1.0" fill="none"/><g id="ProcessOnG1113" transform="matrix(1.0,0.0,0.0,1.0,0.0,1.875)"><text id="ProcessOnText1114" fill="#ffffff" font-size="13" x="35.5" y="13.325" font-family="微软雅黑" font-weight="normal" font-style="normal" text-decoration="none" family="微软雅黑" text-anchor="middle" size="13">2</text></g></g><g id="ProcessOnG1115" transform="matrix(1.0,0.0,0.0,1.0,397.0,425.5)" opacity="1.0"><path id="ProcessOnPath1116" d="M0.0 0.0L73.0 0.0L73.0 20.0L0.0 20.0Z" stroke="none" stroke-width="0.0" stroke-dasharray="none" opacity="1.0" fill="none"/><g id="ProcessOnG1117" transform="matrix(1.0,0.0,0.0,1.0,0.0,1.875)"><text id="ProcessOnText1118" fill="#ffffff" font-size="13" x="35.5" y="13.325" font-family="微软雅黑" font-weight="normal" font-style="normal" text-decoration="none" family="微软雅黑" text-anchor="middle" size="13">1</text></g></g><g id="ProcessOnG1119" transform="matrix(1.0,0.0,0.0,1.0,487.0,381.5)" opacity="1.0"><path id="ProcessOnPath1120" d="M0.0 0.0L73.0 0.0L73.0 20.0L0.0 20.0Z" stroke="none" stroke-width="0.0" stroke-dasharray="none" opacity="1.0" fill="none"/><g id="ProcessOnG1121" transform="matrix(1.0,0.0,0.0,1.0,0.0,1.875)"><text id="ProcessOnText1122" fill="#ffffff" font-size="13" x="35.5" y="13.325" font-family="微软雅黑" font-weight="normal" font-style="normal" text-decoration="none" family="微软雅黑" text-anchor="middle" size="13">4</text></g></g><g id="ProcessOnG1123"><path id="ProcessOnPath1124" d="M438.75 426.4067332602634L455.06250825172265 401.01623176388483" stroke="#323232" stroke-width="2.0" stroke-dasharray="none" fill="none"/></g><g id="ProcessOnG1125" transform="matrix(1.0,0.0,0.0,1.0,330.0,150.0)" opacity="1.0"><path id="ProcessOnPath1126" d="M0.0 6.6000000000000005L88.0 6.6000000000000005L88.0 0.0L98.0 10.0L88.0 20.0L88.0 13.4L0.0 13.4L0.0 6.6000000000000005Z" stroke="#323232" stroke-width="2.0" stroke-dasharray="none" opacity="1.0" fill="#ffff99"/></g><g id="ProcessOnG1127" transform="matrix(1.0,0.0,0.0,1.0,115.0,130.0)" opacity="1.0"><path id="ProcessOnPath1128" d="M0.0 0.0L72.0 0.0L72.0 31.5L0.0 31.5Z" stroke="none" stroke-width="0.0" stroke-dasharray="none" opacity="1.0" fill="none"/><g id="ProcessOnG1129" transform="matrix(1.0,0.0,0.0,1.0,0.0,-0.5)"><text id="ProcessOnText1130" fill="#000000" font-size="13" x="35.0" y="13.325" font-family="微软雅黑" font-weight="normal" font-style="normal" text-decoration="none" family="微软雅黑" text-anchor="middle" size="13">左边叔叔节</text><text id="ProcessOnText1131" fill="#000000" font-size="13" x="35.0" y="29.575" font-family="微软雅黑" font-weight="normal" font-style="normal" text-decoration="none" family="微软雅黑" text-anchor="middle" size="13">点为红色</text></g></g><g id="ProcessOnG1132" transform="matrix(1.0,0.0,0.0,1.0,115.0,357.0)" opacity="1.0"><path id="ProcessOnPath1133" d="M0.0 0.0L72.0 0.0L72.0 31.5L0.0 31.5Z" stroke="none" stroke-width="0.0" stroke-dasharray="none" opacity="1.0" fill="none"/><g id="ProcessOnG1134" transform="matrix(1.0,0.0,0.0,1.0,0.0,-0.5)"><text id="ProcessOnText1135" fill="#000000" font-size="13" x="35.0" y="13.325" font-family="微软雅黑" font-weight="normal" font-style="normal" text-decoration="none" family="微软雅黑" text-anchor="middle" size="13">右边叔叔节</text><text id="ProcessOnText1136" fill="#000000" font-size="13" x="35.0" y="29.575" font-family="微软雅黑" font-weight="normal" font-style="normal" text-decoration="none" family="微软雅黑" text-anchor="middle" size="13">点为红色</text></g></g><g id="ProcessOnG1137" transform="matrix(1.0,0.0,0.0,1.0,330.0,377.5)" opacity="1.0"><path id="ProcessOnPath1138" d="M0.0 6.6000000000000005L88.0 6.6000000000000005L88.0 0.0L98.0 10.0L88.0 20.0L88.0 13.4L0.0 13.4L0.0 6.6000000000000005Z" stroke="#323232" stroke-width="2.0" stroke-dasharray="none" opacity="1.0" fill="#ffff99"/></g><g id="ProcessOnG1139" transform="matrix(1.0,0.0,0.0,1.0,299.0,118.0)" opacity="1.0"><path id="ProcessOnPath1140" d="M0.0 0.0L160.0 0.0L160.0 40.0L0.0 40.0Z" stroke="none" stroke-width="0.0" stroke-dasharray="none" opacity="1.0" fill="none"/><g id="ProcessOnG1141" transform="matrix(1.0,0.0,0.0,1.0,0.0,11.875)"><text id="ProcessOnText1142" fill="#cc0000" font-size="13" x="79.0" y="13.325" font-family="微软雅黑" font-weight="bold" font-style="normal" text-decoration="none" family="微软雅黑" text-anchor="middle" size="13">直接改变颜色即可</text></g></g><g id="ProcessOnG1143" transform="matrix(1.0,0.0,0.0,1.0,299.0,345.0)" opacity="1.0"><path id="ProcessOnPath1144" d="M0.0 0.0L160.0 0.0L160.0 40.0L0.0 40.0Z" stroke="none" stroke-width="0.0" stroke-dasharray="none" opacity="1.0" fill="none"/><g id="ProcessOnG1145" transform="matrix(1.0,0.0,0.0,1.0,0.0,11.875)"><text id="ProcessOnText1146" fill="#cc0000" font-size="13" x="79.0" y="13.325" font-family="微软雅黑" font-weight="bold" font-style="normal" text-decoration="none" family="微软雅黑" text-anchor="middle" size="13">直接改变颜色即可</text></g></g><g id="ProcessOnG1147" transform="matrix(1.0,0.0,0.0,1.0,48.0,44.0)" opacity="1.0"><path id="ProcessOnPath1148" d="M0.0 0.0L134.0 0.0L134.0 36.0L0.0 36.0Z" stroke="none" stroke-width="0.0" stroke-dasharray="none" opacity="1.0" fill="none"/><g id="ProcessOnG1149" transform="matrix(1.0,0.0,0.0,1.0,0.0,9.875)"><text id="ProcessOnText1150" fill="#0066cc" font-size="13" x="66.0" y="13.325" font-family="微软雅黑" font-weight="bold" font-style="normal" text-decoration="none" family="微软雅黑" text-anchor="middle" size="13">情形（1.1）：</text></g></g><g id="ProcessOnG1151" transform="matrix(1.0,0.0,0.0,1.0,48.0,281.0)" opacity="1.0"><path id="ProcessOnPath1152" d="M0.0 0.0L134.0 0.0L134.0 36.0L0.0 36.0Z" stroke="none" stroke-width="0.0" stroke-dasharray="none" opacity="1.0" fill="none"/><g id="ProcessOnG1153" transform="matrix(1.0,0.0,0.0,1.0,0.0,9.875)"><text id="ProcessOnText1154" fill="#0066cc" font-size="13" x="66.0" y="13.325" font-family="微软雅黑" font-weight="bold" font-style="normal" text-decoration="none" family="微软雅黑" text-anchor="middle" size="13">情形（1.:2）：</text></g></g></g></g></svg>