<svg xmlns="http://www.w3.org/2000/svg" xmlns:xlink="http://www.w3.org/1999/xlink" id="processonSvg1000" viewBox="79.70421108273419 51.5 810.2593892361899 278.0" width="810.2593892361899" height="278.0"><defs id="ProcessOnDefs1001"/><g id="ProcessOnG1002"><path id="ProcessOnPath1003" d="M79.70421108273419 51.5H889.9636003189241V329.5H79.70421108273422V51.5Z" fill="none"/><g id="ProcessOnG1004"><g id="ProcessOnG1005" transform="matrix(0.7660444431189778,-0.6427876096865396,0.6427876096865396,0.7660444431189778,182.42792106716303,91.52091799881075)" opacity="1.0"><path id="ProcessOnPath1006" d="M0.0 12.0C0.0 -4.0 24.0 -4.0 24.0 12.0C24.0 28.0 0.0 28.0 0.0 12.0Z" stroke="#323232" stroke-width="2.0" stroke-dasharray="none" opacity="1.0" fill="#00cc00"/></g><g id="ProcessOnG1007" transform="matrix(0.7071067811865474,-0.7071067811865477,0.7071067811865477,0.7071067811865474,171.40999042086176,229.0)" opacity="1.0"><path id="ProcessOnPath1008" d="M0.0 12.0C0.0 -4.0 24.0 -4.0 24.0 12.0C24.0 28.0 0.0 28.0 0.0 12.0Z" stroke="#323232" stroke-width="2.0" stroke-dasharray="none" opacity="1.0" fill="#ffffff"/></g><g id="ProcessOnG1009" transform="matrix(0.6427876096865394,0.766044443118978,-0.766044443118978,0.6427876096865394,247.85963517052815,139.8440153663338)" opacity="1.0"><path id="ProcessOnPath1010" d="M0.0 12.0C0.0 -4.0 24.0 -4.0 24.0 12.0C24.0 28.0 0.0 28.0 0.0 12.0Z" stroke="#323232" stroke-width="2.0" stroke-dasharray="none" opacity="1.0" fill="#00cc00"/></g><g id="ProcessOnG1011" transform="matrix(0.8660254037844384,-0.5000000000000004,0.5000000000000004,0.8660254037844384,280.98824832392563,224.60769515458674)" opacity="1.0"><path id="ProcessOnPath1012" d="M0.0 12.0C0.0 -4.0 24.0 -4.0 24.0 12.0C24.0 28.0 0.0 28.0 0.0 12.0Z" stroke="#323232" stroke-width="2.0" stroke-dasharray="none" opacity="1.0" fill="#ffffff"/></g><g id="ProcessOnG1013" transform="matrix(0.7071067811865476,0.7071067811865475,-0.7071067811865475,0.7071067811865476,138.28725823231957,144.02943725152286)" opacity="1.0"><path id="ProcessOnPath1014" d="M0.0 12.0C0.0 -4.0 24.0 -4.0 24.0 12.0C24.0 28.0 0.0 28.0 0.0 12.0Z" stroke="#323232" stroke-width="2.0" stroke-dasharray="none" opacity="1.0" fill="#ffffff"/></g><g id="ProcessOnG1015" transform="matrix(0.8660254037844384,-0.5000000000000004,0.5000000000000004,0.8660254037844384,219.48824832392563,292.60769515458674)" opacity="1.0"><path id="ProcessOnPath1016" d="M0.0 12.0C0.0 -4.0 24.0 -4.0 24.0 12.0C24.0 28.0 0.0 28.0 0.0 12.0Z" stroke="#323232" stroke-width="2.0" stroke-dasharray="none" opacity="1.0" fill="#ffffff"/></g><g id="ProcessOnG1017" transform="matrix(1.0,0.0,0.0,1.0,153.8805531693389,83.0)" opacity="1.0"><path id="ProcessOnPath1018" d="M0.0 0.0L94.0 0.0L94.0 20.0L0.0 20.0Z" stroke="none" stroke-width="0.0" stroke-dasharray="none" opacity="1.0" fill="none"/><g id="ProcessOnG1019" transform="matrix(1.0,0.0,0.0,1.0,0.0,1.875)"><text id="ProcessOnText1020" fill="#000000" font-size="13" x="46.0" y="13.325" font-family="微软雅黑" font-weight="normal" font-style="normal" text-decoration="none" family="微软雅黑" text-anchor="middle" size="13">K1</text></g></g><g id="ProcessOnG1021" transform="matrix(1.0,0.0,0.0,1.0,214.2975060197535,146.75)" opacity="1.0"><path id="ProcessOnPath1022" d="M0.0 0.0L64.16609429917077 0.0L64.16609429917077 20.0L0.0 20.0Z" stroke="none" stroke-width="0.0" stroke-dasharray="none" opacity="1.0" fill="none"/><g id="ProcessOnG1023" transform="matrix(1.0,0.0,0.0,1.0,0.0,1.875)"><text id="ProcessOnText1024" fill="#000000" font-size="13" x="31.083047149585383" y="13.325" font-family="微软雅黑" font-weight="normal" font-style="normal" text-decoration="none" family="微软雅黑" text-anchor="middle" size="13">K2</text></g></g><g id="ProcessOnG1025" transform="matrix(0.6427876096865394,0.766044443118978,-0.766044443118978,0.6427876096865394,477.8596351705282,71.09401536633379)" opacity="1.0"><path id="ProcessOnPath1026" d="M0.0 12.0C0.0 -4.0 24.0 -4.0 24.0 12.0C24.0 28.0 0.0 28.0 0.0 12.0Z" stroke="#323232" stroke-width="2.0" stroke-dasharray="none" opacity="1.0" fill="#00cc00"/></g><g id="ProcessOnG1027" transform="matrix(1.0,0.0,0.0,1.0,99.70421108273419,148.5)" opacity="1.0"><path id="ProcessOnPath1028" d="M0.0 0.0L77.16609429917077 0.0L77.16609429917077 25.0L0.0 25.0Z" stroke="none" stroke-width="0.0" stroke-dasharray="none" opacity="1.0" fill="none"/><g id="ProcessOnG1029" transform="matrix(1.0,0.0,0.0,1.0,0.0,4.375)"><text id="ProcessOnText1030" fill="#000000" font-size="13" x="37.58304714958538" y="13.325" font-family="微软雅黑" font-weight="normal" font-style="normal" text-decoration="none" family="微软雅黑" text-anchor="middle" size="13">3</text></g></g><g id="ProcessOnG1031" transform="matrix(0.7071067811865476,0.7071067811865475,-0.7071067811865475,0.7071067811865476,554.3805531693389,198.52943725152286)" opacity="1.0"><path id="ProcessOnPath1032" d="M0.0 12.0C0.0 -4.0 24.0 -4.0 24.0 12.0C24.0 28.0 0.0 28.0 0.0 12.0Z" stroke="#323232" stroke-width="2.0" stroke-dasharray="none" opacity="1.0" fill="#00cc00"/></g><g id="ProcessOnG1033" transform="matrix(1.0,0.0,0.0,1.0,515.9636003189241,203.5)" opacity="1.0"><path id="ProcessOnPath1034" d="M0.0 0.0L77.16609429917077 0.0L77.16609429917077 25.0L0.0 25.0Z" stroke="none" stroke-width="0.0" stroke-dasharray="none" opacity="1.0" fill="none"/><g id="ProcessOnG1035" transform="matrix(1.0,0.0,0.0,1.0,0.0,4.375)"><text id="ProcessOnText1036" fill="#000000" font-size="13" x="37.58304714958538" y="13.325" font-family="微软雅黑" font-weight="normal" font-style="normal" text-decoration="none" family="微软雅黑" text-anchor="middle" size="13">K2</text></g></g><g id="ProcessOnG1037" transform="matrix(0.7660444431189778,-0.6427876096865396,0.6427876096865396,0.7660444431189778,587.4745685356727,291.5209179988107)" opacity="1.0"><path id="ProcessOnPath1038" d="M0.0 12.0C0.0 -4.0 24.0 -4.0 24.0 12.0C24.0 28.0 0.0 28.0 0.0 12.0Z" stroke="#323232" stroke-width="2.0" stroke-dasharray="none" opacity="1.0" fill="#ffffff"/></g><g id="ProcessOnG1039" transform="matrix(0.42261826174069944,0.9063077870366499,-0.9063077870366499,0.42261826174069944,529.1848274728903,138.8028874146718)" opacity="1.0"><path id="ProcessOnPath1040" d="M0.0 12.0C0.0 -4.0 24.0 -4.0 24.0 12.0C24.0 28.0 0.0 28.0 0.0 12.0Z" stroke="#323232" stroke-width="2.0" stroke-dasharray="none" opacity="1.0" fill="#ffffff"/></g><g id="ProcessOnG1041" transform="matrix(0.9396926207859084,-0.3420201433256686,0.3420201433256686,0.9396926207859084,485.0,285.8279302704771)" opacity="1.0"><path id="ProcessOnPath1042" d="M0.0 12.0C0.0 -4.0 24.0 -4.0 24.0 12.0C24.0 28.0 0.0 28.0 0.0 12.0Z" stroke="#323232" stroke-width="2.0" stroke-dasharray="none" opacity="1.0" fill="#ffffff"/></g><g id="ProcessOnG1043" transform="matrix(0.5000000000000009,-0.8660254037844382,0.8660254037844382,0.5000000000000009,410.40520117434016,159.14230484541324)" opacity="1.0"><path id="ProcessOnPath1044" d="M0.0 12.0C0.0 -4.0 24.0 -4.0 24.0 12.0C24.0 28.0 0.0 28.0 0.0 12.0Z" stroke="#323232" stroke-width="2.0" stroke-dasharray="none" opacity="1.0" fill="#ffffff"/></g><g id="ProcessOnG1045" transform="matrix(1.0,0.0,0.0,1.0,150.28725823231957,217.0)" opacity="1.0"><path id="ProcessOnPath1046" d="M0.0 0.0L77.16609429917077 0.0L77.16609429917077 25.0L0.0 25.0Z" stroke="none" stroke-width="0.0" stroke-dasharray="none" opacity="1.0" fill="none"/><g id="ProcessOnG1047" transform="matrix(1.0,0.0,0.0,1.0,0.0,4.375)"><text id="ProcessOnText1048" fill="#000000" font-size="13" x="37.58304714958538" y="13.325" font-family="微软雅黑" font-weight="normal" font-style="normal" text-decoration="none" family="微软雅黑" text-anchor="middle" size="13">4</text></g></g><g id="ProcessOnG1049" transform="matrix(1.0,0.0,0.0,1.0,438.7975060197534,75.5)" opacity="1.0"><path id="ProcessOnPath1050" d="M0.0 0.0L77.16609429917077 0.0L77.16609429917077 25.0L0.0 25.0Z" stroke="none" stroke-width="0.0" stroke-dasharray="none" opacity="1.0" fill="none"/><g id="ProcessOnG1051" transform="matrix(1.0,0.0,0.0,1.0,0.0,4.375)"><text id="ProcessOnText1052" fill="#000000" font-size="13" x="37.58304714958538" y="13.325" font-family="微软雅黑" font-weight="normal" font-style="normal" text-decoration="none" family="微软雅黑" text-anchor="middle" size="13">K1</text></g></g><g id="ProcessOnG1053" transform="matrix(1.0,0.0,0.0,1.0,197.2975060197535,284.5)" opacity="1.0"><path id="ProcessOnPath1054" d="M0.0 0.0L77.16609429917077 0.0L77.16609429917077 25.0L0.0 25.0Z" stroke="none" stroke-width="0.0" stroke-dasharray="none" opacity="1.0" fill="none"/><g id="ProcessOnG1055" transform="matrix(1.0,0.0,0.0,1.0,0.0,4.375)"><text id="ProcessOnText1056" fill="#000000" font-size="13" x="37.58304714958538" y="13.325" font-family="微软雅黑" font-weight="normal" font-style="normal" text-decoration="none" family="微软雅黑" text-anchor="middle" size="13">5</text></g></g><g id="ProcessOnG1057" transform="matrix(1.0,0.0,0.0,1.0,258.3805531693389,216.5)" opacity="1.0"><path id="ProcessOnPath1058" d="M0.0 0.0L77.16609429917077 0.0L77.16609429917077 25.0L0.0 25.0Z" stroke="none" stroke-width="0.0" stroke-dasharray="none" opacity="1.0" fill="none"/><g id="ProcessOnG1059" transform="matrix(1.0,0.0,0.0,1.0,0.0,4.375)"><text id="ProcessOnText1060" fill="#000000" font-size="13" x="37.58304714958538" y="13.325" font-family="微软雅黑" font-weight="normal" font-style="normal" text-decoration="none" family="微软雅黑" text-anchor="middle" size="13">6</text></g></g><g id="ProcessOnG1061" transform="matrix(1.0,0.0,0.0,1.0,388.2144588701681,142.25)" opacity="1.0"><path id="ProcessOnPath1062" d="M0.0 0.0L77.16609429917077 0.0L77.16609429917077 25.0L0.0 25.0Z" stroke="none" stroke-width="0.0" stroke-dasharray="none" opacity="1.0" fill="none"/><g id="ProcessOnG1063" transform="matrix(1.0,0.0,0.0,1.0,0.0,4.375)"><text id="ProcessOnText1064" fill="#000000" font-size="13" x="37.58304714958538" y="13.325" font-family="微软雅黑" font-weight="normal" font-style="normal" text-decoration="none" family="微软雅黑" text-anchor="middle" size="13">3</text></g></g><g id="ProcessOnG1065" transform="matrix(1.0,0.0,0.0,1.0,484.79750601975354,144.25)" opacity="1.0"><path id="ProcessOnPath1066" d="M0.0 0.0L77.16609429917077 0.0L77.16609429917077 25.0L0.0 25.0Z" stroke="none" stroke-width="0.0" stroke-dasharray="none" opacity="1.0" fill="none"/><g id="ProcessOnG1067" transform="matrix(1.0,0.0,0.0,1.0,0.0,4.375)"><text id="ProcessOnText1068" fill="#000000" font-size="13" x="37.58304714958538" y="13.325" font-family="微软雅黑" font-weight="normal" font-style="normal" text-decoration="none" family="微软雅黑" text-anchor="middle" size="13">4</text></g></g><g id="ProcessOnG1069" transform="matrix(1.0,0.0,0.0,1.0,461.7975060197534,280.0)" opacity="1.0"><path id="ProcessOnPath1070" d="M0.0 0.0L77.16609429917077 0.0L77.16609429917077 25.0L0.0 25.0Z" stroke="none" stroke-width="0.0" stroke-dasharray="none" opacity="1.0" fill="none"/><g id="ProcessOnG1071" transform="matrix(1.0,0.0,0.0,1.0,0.0,4.375)"><text id="ProcessOnText1072" fill="#000000" font-size="13" x="37.58304714958538" y="13.325" font-family="微软雅黑" font-weight="normal" font-style="normal" text-decoration="none" family="微软雅黑" text-anchor="middle" size="13">5</text></g></g><g id="ProcessOnG1073" transform="matrix(1.0,0.0,0.0,1.0,565.7975060197535,280.0)" opacity="1.0"><path id="ProcessOnPath1074" d="M0.0 0.0L77.16609429917077 0.0L77.16609429917077 25.0L0.0 25.0Z" stroke="none" stroke-width="0.0" stroke-dasharray="none" opacity="1.0" fill="none"/><g id="ProcessOnG1075" transform="matrix(1.0,0.0,0.0,1.0,0.0,4.375)"><text id="ProcessOnText1076" fill="#000000" font-size="13" x="37.58304714958538" y="13.325" font-family="微软雅黑" font-weight="normal" font-style="normal" text-decoration="none" family="微软雅黑" text-anchor="middle" size="13">6</text></g></g><g id="ProcessOnG1077" transform="matrix(1.0,0.0,0.0,1.0,304.9636003189243,183.5)" opacity="1.0"><path id="ProcessOnPath1078" d="M0.0 6.6000000000000005L88.0363996810757 6.6000000000000005L88.0363996810757 0.0L98.0363996810757 10.0L88.0363996810757 20.0L88.0363996810757 13.4L0.0 13.4L0.0 6.6000000000000005Z" stroke="#323232" stroke-width="2.0" stroke-dasharray="none" opacity="1.0" fill="#ccffcc"/></g><g id="ProcessOnG1079" transform="matrix(1.0,0.0,0.0,1.0,304.9636003189243,154.25)" opacity="1.0"><path id="ProcessOnPath1080" d="M0.0 0.0L98.03639968107575 0.0L98.03639968107575 35.75L0.0 35.75Z" stroke="none" stroke-width="0.0" stroke-dasharray="none" opacity="1.0" fill="none"/><g id="ProcessOnG1081" transform="matrix(1.0,0.0,0.0,1.0,0.0,1.625)"><text id="ProcessOnText1082" fill="#ff0000" font-size="13" x="48.018199840537875" y="13.325" font-family="微软雅黑" font-weight="bold" font-style="normal" text-decoration="none" family="微软雅黑" text-anchor="middle" size="13">RL型，先以K2为</text><text id="ProcessOnText1083" fill="#ff0000" font-size="13" x="48.018199840537875" y="29.575" font-family="微软雅黑" font-weight="bold" font-style="normal" text-decoration="none" family="微软雅黑" text-anchor="middle" size="13">基础进行右旋</text></g></g><g id="ProcessOnG1084"><path id="ProcessOnPath1085" d="M196.86583454357745 220.51471862576142L237.18801985191115 164.46345131623846" stroke="#323232" stroke-width="2.0" stroke-dasharray="none" fill="none"/></g><g id="ProcessOnG1086"><path id="ProcessOnPath1087" d="M254.0940044855774 165.94253331742775L291.3805531693389 218.60769515458674" stroke="#323232" stroke-width="2.0" stroke-dasharray="none" fill="none"/></g><g id="ProcessOnG1088"><path id="ProcessOnPath1089" d="M190.14137238340152 100.71345131623849L146.77253960655815 152.51471862576142" stroke="#323232" stroke-width="2.0" stroke-dasharray="none" fill="none"/></g><g id="ProcessOnG1090"><path id="ProcessOnPath1091" d="M207.0473570170677 102.19253331742775L238.66710185310043 147.55746668257225" stroke="#323232" stroke-width="2.0" stroke-dasharray="none" fill="none"/></g><g id="ProcessOnG1092"><path id="ProcessOnPath1093" d="M196.86583454357748 237.48528137423855L229.8805531693389 286.60769515458674" stroke="#323232" stroke-width="2.0" stroke-dasharray="none" fill="none"/></g><g id="ProcessOnG1094"><path id="ProcessOnPath1095" d="M484.09400448557733 97.19253331742773L518.3091340284506 143.8743065555602" stroke="#323232" stroke-width="2.0" stroke-dasharray="none" fill="none"/></g><g id="ProcessOnG1096"><path id="ProcessOnPath1097" d="M528.4519723102272 165.6256934444398L545.8952717951004 207.01471862576142" stroke="#323232" stroke-width="2.0" stroke-dasharray="none" fill="none"/></g><g id="ProcessOnG1098"><path id="ProcessOnPath1099" d="M562.8658345435774 223.98528137423858L596.6671018531005 283.8074666825723" stroke="#323232" stroke-width="2.0" stroke-dasharray="none" fill="none"/></g><g id="ProcessOnG1100"><path id="ProcessOnPath1101" d="M545.8952717951004 223.98528137423858L506.5 283.0980762113533" stroke="#323232" stroke-width="2.0" stroke-dasharray="none" fill="none"/></g><g id="ProcessOnG1102"><path id="ProcessOnPath1103" d="M467.1880198519111 95.71345131623848L432.7975060197534 144.35769515458674" stroke="#323232" stroke-width="2.0" stroke-dasharray="none" fill="none"/></g><g id="ProcessOnG1104" transform="matrix(0.766044443118978,0.6427876096865393,-0.6427876096865393,0.766044443118978,680.9014711681496,127.84401536633379)" opacity="1.0"><path id="ProcessOnPath1105" d="M0.0 12.0C0.0 -4.0 24.0 -4.0 24.0 12.0C24.0 28.0 0.0 28.0 0.0 12.0Z" stroke="#323232" stroke-width="2.0" stroke-dasharray="none" opacity="1.0" fill="#00cc00"/></g><g id="ProcessOnG1106" transform="matrix(0.7071067811865476,0.7071067811865475,-0.7071067811865475,0.7071067811865476,784.3805531693389,127.77943725152286)" opacity="1.0"><path id="ProcessOnPath1107" d="M0.0 12.0C0.0 -4.0 24.0 -4.0 24.0 12.0C24.0 28.0 0.0 28.0 0.0 12.0Z" stroke="#323232" stroke-width="2.0" stroke-dasharray="none" opacity="1.0" fill="#00cc00"/></g><g id="ProcessOnG1108" transform="matrix(1.0,0.0,0.0,1.0,745.7975060197535,132.75)" opacity="1.0"><path id="ProcessOnPath1109" d="M0.0 0.0L77.16609429917077 0.0L77.16609429917077 25.0L0.0 25.0Z" stroke="none" stroke-width="0.0" stroke-dasharray="none" opacity="1.0" fill="none"/><g id="ProcessOnG1110" transform="matrix(1.0,0.0,0.0,1.0,0.0,4.375)"><text id="ProcessOnText1111" fill="#000000" font-size="13" x="37.58304714958538" y="13.325" font-family="微软雅黑" font-weight="normal" font-style="normal" text-decoration="none" family="微软雅黑" text-anchor="middle" size="13">K2</text></g></g><g id="ProcessOnG1112" transform="matrix(0.7660444431189778,-0.6427876096865396,0.6427876096865396,0.7660444431189778,814.4745685356727,214.02091799881075)" opacity="1.0"><path id="ProcessOnPath1113" d="M0.0 12.0C0.0 -4.0 24.0 -4.0 24.0 12.0C24.0 28.0 0.0 28.0 0.0 12.0Z" stroke="#323232" stroke-width="2.0" stroke-dasharray="none" opacity="1.0" fill="#ffffff"/></g><g id="ProcessOnG1114" transform="matrix(0.7071067811865476,0.7071067811865475,-0.7071067811865475,0.7071067811865476,736.3805531693389,66.52943725152286)" opacity="1.0"><path id="ProcessOnPath1115" d="M0.0 12.0C0.0 -4.0 24.0 -4.0 24.0 12.0C24.0 28.0 0.0 28.0 0.0 12.0Z" stroke="#323232" stroke-width="2.0" stroke-dasharray="none" opacity="1.0" fill="#ffffff"/></g><g id="ProcessOnG1116" transform="matrix(0.9396926207859084,-0.3420201433256686,0.3420201433256686,0.9396926207859084,726.9999999999999,208.3279302704771)" opacity="1.0"><path id="ProcessOnPath1117" d="M0.0 12.0C0.0 -4.0 24.0 -4.0 24.0 12.0C24.0 28.0 0.0 28.0 0.0 12.0Z" stroke="#323232" stroke-width="2.0" stroke-dasharray="none" opacity="1.0" fill="#ffffff"/></g><g id="ProcessOnG1118" transform="matrix(0.5000000000000009,-0.8660254037844382,0.8660254037844382,0.5000000000000009,624.5712954735111,219.89230484541324)" opacity="1.0"><path id="ProcessOnPath1119" d="M0.0 12.0C0.0 -4.0 24.0 -4.0 24.0 12.0C24.0 28.0 0.0 28.0 0.0 12.0Z" stroke="#323232" stroke-width="2.0" stroke-dasharray="none" opacity="1.0" fill="#ffffff"/></g><g id="ProcessOnG1120" transform="matrix(1.0,0.0,0.0,1.0,643.7975060197534,132.75)" opacity="1.0"><path id="ProcessOnPath1121" d="M0.0 0.0L77.16609429917077 0.0L77.16609429917077 25.0L0.0 25.0Z" stroke="none" stroke-width="0.0" stroke-dasharray="none" opacity="1.0" fill="none"/><g id="ProcessOnG1122" transform="matrix(1.0,0.0,0.0,1.0,0.0,4.375)"><text id="ProcessOnText1123" fill="#000000" font-size="13" x="37.58304714958538" y="13.325" font-family="微软雅黑" font-weight="normal" font-style="normal" text-decoration="none" family="微软雅黑" text-anchor="middle" size="13">K1</text></g></g><g id="ProcessOnG1124" transform="matrix(1.0,0.0,0.0,1.0,602.380553169339,203.0)" opacity="1.0"><path id="ProcessOnPath1125" d="M0.0 0.0L77.16609429917077 0.0L77.16609429917077 25.0L0.0 25.0Z" stroke="none" stroke-width="0.0" stroke-dasharray="none" opacity="1.0" fill="none"/><g id="ProcessOnG1126" transform="matrix(1.0,0.0,0.0,1.0,0.0,4.375)"><text id="ProcessOnText1127" fill="#000000" font-size="13" x="37.58304714958538" y="13.325" font-family="微软雅黑" font-weight="normal" font-style="normal" text-decoration="none" family="微软雅黑" text-anchor="middle" size="13">3</text></g></g><g id="ProcessOnG1128" transform="matrix(1.0,0.0,0.0,1.0,697.7975060197534,71.5)" opacity="1.0"><path id="ProcessOnPath1129" d="M0.0 0.0L77.16609429917077 0.0L77.16609429917077 25.0L0.0 25.0Z" stroke="none" stroke-width="0.0" stroke-dasharray="none" opacity="1.0" fill="none"/><g id="ProcessOnG1130" transform="matrix(1.0,0.0,0.0,1.0,0.0,4.375)"><text id="ProcessOnText1131" fill="#000000" font-size="13" x="37.58304714958538" y="13.325" font-family="微软雅黑" font-weight="normal" font-style="normal" text-decoration="none" family="微软雅黑" text-anchor="middle" size="13">4</text></g></g><g id="ProcessOnG1132" transform="matrix(1.0,0.0,0.0,1.0,703.7975060197534,203.0)" opacity="1.0"><path id="ProcessOnPath1133" d="M0.0 0.0L77.16609429917077 0.0L77.16609429917077 25.0L0.0 25.0Z" stroke="none" stroke-width="0.0" stroke-dasharray="none" opacity="1.0" fill="none"/><g id="ProcessOnG1134" transform="matrix(1.0,0.0,0.0,1.0,0.0,4.375)"><text id="ProcessOnText1135" fill="#000000" font-size="13" x="37.58304714958538" y="13.325" font-family="微软雅黑" font-weight="normal" font-style="normal" text-decoration="none" family="微软雅黑" text-anchor="middle" size="13">5</text></g></g><g id="ProcessOnG1136" transform="matrix(1.0,0.0,0.0,1.0,792.7975060197534,203.0)" opacity="1.0"><path id="ProcessOnPath1137" d="M0.0 0.0L77.16609429917077 0.0L77.16609429917077 25.0L0.0 25.0Z" stroke="none" stroke-width="0.0" stroke-dasharray="none" opacity="1.0" fill="none"/><g id="ProcessOnG1138" transform="matrix(1.0,0.0,0.0,1.0,0.0,4.375)"><text id="ProcessOnText1139" fill="#000000" font-size="13" x="37.58304714958538" y="13.325" font-family="微软雅黑" font-weight="normal" font-style="normal" text-decoration="none" family="微软雅黑" text-anchor="middle" size="13">6</text></g></g><g id="ProcessOnG1140"><path id="ProcessOnPath1141" d="M727.8952717951004 91.98528137423857L690.0940044855773 135.55746668257225" stroke="#323232" stroke-width="2.0" stroke-dasharray="none" fill="none"/></g><g id="ProcessOnG1142"><path id="ProcessOnPath1143" d="M674.6671018531002 153.94253331742775L646.9636003189244 205.10769515458674" stroke="#323232" stroke-width="2.0" stroke-dasharray="none" fill="none"/></g><g id="ProcessOnG1144"><path id="ProcessOnPath1145" d="M775.8952717951004 153.23528137423858L747.5773817382593 204.90630778703664" stroke="#323232" stroke-width="2.0" stroke-dasharray="none" fill="none"/></g><g id="ProcessOnG1146"><path id="ProcessOnPath1147" d="M792.8658345435774 153.23528137423858L823.6671018531005 206.30746668257225" stroke="#323232" stroke-width="2.0" stroke-dasharray="none" fill="none"/></g><g id="ProcessOnG1148"><path id="ProcessOnPath1149" d="M744.8658345435774 91.9852813742386L775.8952717951004 136.26471862576142" stroke="#323232" stroke-width="2.0" stroke-dasharray="none" fill="none"/></g><g id="ProcessOnG1150" transform="matrix(1.0,0.0,0.0,1.0,554.9636003189244,123.5)" opacity="1.0"><path id="ProcessOnPath1151" d="M0.0 6.6000000000000005L88.0363996810757 6.6000000000000005L88.0363996810757 0.0L98.0363996810757 10.0L88.0363996810757 20.0L88.0363996810757 13.4L0.0 13.4L0.0 6.6000000000000005Z" stroke="#323232" stroke-width="2.0" stroke-dasharray="none" opacity="1.0" fill="#ccffcc"/></g><g id="ProcessOnG1152" transform="matrix(1.0,0.0,0.0,1.0,554.9636003189244,95.5)" opacity="1.0"><path id="ProcessOnPath1153" d="M0.0 0.0L82.03639968107564 0.0L82.03639968107564 34.5L0.0 34.5Z" stroke="none" stroke-width="0.0" stroke-dasharray="none" opacity="1.0" fill="none"/><g id="ProcessOnG1154" transform="matrix(1.0,0.0,0.0,1.0,0.0,1.0)"><text id="ProcessOnText1155" fill="#ff0000" font-size="13" x="40.01819984053782" y="13.325" font-family="微软雅黑" font-weight="bold" font-style="normal" text-decoration="none" family="微软雅黑" text-anchor="middle" size="13">再以K1为基</text><text id="ProcessOnText1156" fill="#ff0000" font-size="13" x="40.01819984053782" y="29.575" font-family="微软雅黑" font-weight="bold" font-style="normal" text-decoration="none" family="微软雅黑" text-anchor="middle" size="13">础进行左旋</text></g></g></g></g></svg>